<svg xmlns="http://www.w3.org/2000/svg" viewBox="0 0 76.9 76.9" xmlns:v="https://vecta.io/nano"><circle cx="38.4" cy="38.4" r="28.7" fill="#e5f0ff"/><path d="M70.1 40.6l-35.9-1.2L6.6 50l46.1 1.9z" fill="#bcbec0"/><path d="M69.6 38.9l-36-1.3L5.9 48.2l46.3 1.9z" fill="#e6e7e8"/><path d="M69.6 36.4l-35.8-1.3L6.1 45.7l46.1 1.9z" fill="#bcbec0"/><path d="M71.1 34.1l-35.9-1.2L7.5 43.5l46.2 1.9z" fill="#e6e7e8"/><path d="M69.6 32.9l-35.9-1.3L6.1 42.2l46.1 1.9z" fill="#bcbec0"/><path d="M71.1 30.5l-35.9-1.2L7.4 39.8l46.3 2z" fill="#e6e7e8"/><path d="M71.2 27.9l-35.9-1.1L7.6 37.4l46.2 1.8z" fill="#bcbec0"/><path d="M72.6 25.7l-35.9-1.1L9 35.1 55.2 37z" fill="#e6e7e8"/><path d="M72.7 23.9l-35.8-1.2L9.1 33.3l46.2 1.9z" fill="#bcbec0"/><path d="M55.4 31.9l-34.7-1.4-2.5 1 35.4 1.4zm3.3-2l-33.3-1.3-2.3 1L57 30.8zm3-1.8l-32-1.2-2.1.9L60.1 29zm2.7-1.7l-30.7-1.1-1.9.8L63 27.3zm2.5-1.5l-29.5-1-1.8.7 30 1.1z" fill="#a7a9ac"/><path d="M4.4 31.9l28.8 1.2-8.8-8.8z" fill="#e2e4e8"/><path d="M37.7 21.6c-2.7 2.5-7 3-10.6 1.7l-2.7 1 8.8 8.8 17.3.7 17.4-11.2-30.2-1z" fill="#d2d3d7"/><path d="M37.7 21.6l-5.7-.2-4.9 1.9c3.7 1.3 7.9.8 10.6-1.7z" fill="#e2e4e8"/><path d="M48.8 31.6l1.7-1-20.8-.9 1.2 1.2z" fill="#bdbec3"/><path d="M29.7 29.7l-13.8-.5-2.5 1 17.5.7z" fill="#cdcfd4"/><path d="M53.8 28.6l-26.2-1 1.1 1 23.5 1z" fill="#bdbec3"/><path d="M20.7 27.4l-2.4.9 10.4.3-1.1-1zm4.3-1.7l-2.2.8 3.9.1-1-.9z" fill="#cdcfd4"/><path d="M56.8 26.8l-31.1-1.1 1 .9 28.7 1.1zM29 24l-2.1.8L58.2 26l1.4-.9zm3.6-1.4l-1.8.7 30.1 1.1 1.2-.8z" fill="#bdbec3"/><path d="M30.6 27.9c.6.1 1.5.1 3.1.3l-.2-2.1-3.1.7.2 1.1zm30.1-4.6L64 23l-1.3 4.1-2.4.2z" fill="#309175"/><path d="M50.9 28l-.3-4.2c-.4 0-.8.1-1.2.1l.3 4.1h1.2z" fill="#414042"/><path d="M47.9 24.2L33.6 26l.2 2.4 14.5-.3-.4-3.9zm12.3-.5s.1-.7-.7-1.3-2.5-.8-4.8-.5c-4.5.4-10.2.7-10.3.7 0 0 1 1.8 3.3.8 1.6-.1 8.4-.3 8.5-.3 0 0 .5 0 .8.2.2.1.3.3.2.8-.2.4-.1.6.1.7.5.2 2.2-.8 2.9-1.1h0 0z" fill="#58595b"/><path d="M49.6 28.1l-.3-4.1c-.5.1-1 .1-1.4.2l.3 3.9h1.4z" fill="#309175"/><path d="M61.3 27.3l-.3-4.2c-4.2.2-7.5.4-10.4.8l.3 4.2 10.4-.8z" fill="#58595b"/><path d="M30.5 26.8c-.2 0-.4.1-.7.2-.4.2-.7.3-.9.5.3.1.5.3.9.3.3.1.6.1.8.2 0-.4 0-.8-.1-1.2z" fill="#414042"/><path d="M44.4 32.5c-4.3-3.9-10.8-3.7-14.7.6S26 44 30.3 47.9c3.9 3.7 9.9 3.7 13.9.2l3.9 3.5-.9 1 15.2 14 3.4-3.8-15.2-14-.9 1-3.9-3.5c3.2-4.2 2.7-10.1-1.4-13.8zm-9.8 15.4c-4.1-1.6-6.3-6.2-4.9-10.4 1.6-4.1 6.2-6.3 10.4-4.9 4.1 1.6 6.3 6.2 4.9 10.4s-6.2 6.3-10.4 4.9z" fill="#42cea9"/></svg>