<?xml version="1.0" encoding="utf-8"?>
<!-- Generator: Adobe Illustrator 24.0.1, SVG Export Plug-In . SVG Version: 6.00 Build 0)  -->
<svg version="1.1" id="_x31__1_" xmlns="http://www.w3.org/2000/svg" xmlns:xlink="http://www.w3.org/1999/xlink" x="0px" y="0px"
	 viewBox="0 0 76.9 76.9" style="enable-background:new 0 0 76.9 76.9;" xml:space="preserve">
<style type="text/css">
	.st0{fill:#C49A6C;}
	.st1{fill:#B0875A;}
	.st2{fill:#6D6E71;}
	.st3{fill:#56585D;}
	.st4{fill:#FFFFFF;}
	.st5{fill:#E6E7E8;}
	.st6{fill:#BCBEC0;}
	.st7{fill:#A2A7AC;}
	.st8{fill:#939598;}
	.st9{fill:#7B7E84;}
	.st10{fill:#808285;}
	.st11{fill:#686C71;}
	.st12{fill:#00A79D;}
	.st13{fill:#414042;}
	.st14{fill:#E5F0FF;}
	.st15{fill:#27725B;}
	.st16{fill:#D1D3D4;}
	.st17{fill:#42CEA9;}
	.st18{fill:#A7A9AA;}
	.st19{fill:#7E8082;}
	.st20{fill:#58595B;}
	.st21{fill:#E6850E;}
	.st22{fill:#F9ED32;}
	.st23{fill:#E8AF93;}
	.st24{fill:#DBA18F;}
	.st25{fill:#F9CFB3;}
	.st26{fill:#5F5C54;}
	.st27{fill:#BAD1DD;}
	.st28{fill:#3AAD8C;}
	.st29{fill:#E4F4FF;}
	.st30{fill:#A7A9AC;}
	.st31{fill:#9BA6B1;}
	.st32{fill:#EA5F21;}
	.st33{fill:#F9773D;}
	.st34{fill:#20B7EA;}
	.st35{fill:#07A6DB;}
	.st36{fill:#42454C;}
	.st37{fill:#E8CB37;}
	.st38{fill:#F7DC54;}
	.st39{fill:#FAC69A;}
	.st40{fill:#F9DFCD;}
	.st41{fill:#7E7F7F;}
	.st42{fill:#565656;}
	.st43{fill:#F9DDC7;}
	.st44{fill:#F1F2F2;}
	.st45{fill:#ED1C24;}
	.st46{fill:#00C0B4;}
	.st47{fill:#07B3A8;}
	.st48{fill:#04A898;}
	.st49{fill:#089A8B;}
	.st50{fill:#F5F6F6;}
	.st51{fill:#ECEDEE;}
	.st52{fill:#E2E3E4;}
	.st53{fill:#F5940C;}
	.st54{fill:#EB9114;}
	.st55{fill:#D4811A;}
	.st56{fill:#D7CC2B;}
	.st57{fill:#94A3AA;}
	.st58{fill:#39AA89;}
	.st59{fill:#21604C;}
	.st60{fill:#EFF1F2;}
	.st61{fill:#EB4747;}
	.st62{fill:#D8A27D;}
	.st63{fill:#EAB38B;}
	.st64{fill:#F2C4A5;}
	.st65{fill:#077D71;}
	.st66{fill:#B8B9BA;}
	.st67{fill:#A3A5A6;}
	.st68{fill:#21D8C2;}
	.st69{fill:#0AC6B3;}
	.st70{fill:#3B3C3D;}
	.st71{fill:#4E4F4F;}
	.st72{fill:#CDCECE;}
	.st73{fill:#CAE9E6;}
	.st74{fill:#C4E4E2;}
	.st75{fill:#BFDEDC;}
	.st76{fill:#B9D9D8;}
	.st77{fill:#B1D3D1;}
	.st78{fill:#ABCDCC;}
	.st79{fill:#A6C6C5;}
	.st80{fill:#9FC1C0;}
	.st81{fill:#99BBBB;}
	.st82{fill:#94B6B5;}
	.st83{fill:#8DAFB1;}
	.st84{fill:#F5F9FA;}
	.st85{fill:#ECF0F1;}
	.st86{fill:#E3E6E8;}
	.st87{fill:#DADEE0;}
	.st88{fill:#D2D5D7;}
	.st89{fill:#C8CCCD;}
	.st90{fill:#BFC2C4;}
	.st91{fill:#B6BABB;}
	.st92{fill:#AEB1B2;}
	.st93{fill:#A4A8AA;}
	.st94{fill:#9A9DA0;}
	.st95{fill:#929598;}
	.st96{fill:#F26D53;}
	.st97{fill:#F26347;}
	.st98{fill:#788696;}
	.st99{clip-path:url(#SVGID_2_);fill:#CAE9E6;}
	.st100{fill:#F1F5F6;}
	.st101{fill:#E9ECEC;}
	.st102{fill:#E4E7E9;}
	.st103{fill:#E0E4E4;}
	.st104{fill:#DBDFE1;}
	.st105{fill:#D7DBDD;}
	.st106{fill:#D2D7D8;}
	.st107{fill:#D0D2D4;}
	.st108{fill:#CACED0;}
	.st109{fill:#C6C9CA;}
	.st110{fill:#C1C5C7;}
	.st111{fill:#BDC0C2;}
	.st112{fill:#B8BCBE;}
	.st113{fill:#B5B8BA;}
	.st114{fill:#B1B4B5;}
	.st115{fill:#ADB0B1;}
	.st116{fill:#A8ABAE;}
	.st117{fill:#A3A7A9;}
	.st118{fill:#9EA1A4;}
	.st119{fill:#96999C;}
	.st120{fill:#F0F4F5;}
	.st121{fill:#E8EBEB;}
	.st122{fill:#DFE3E3;}
	.st123{fill:#D5DADB;}
	.st124{fill:#CED1D2;}
	.st125{fill:#C3C7C9;}
	.st126{fill:#BABEC0;}
	.st127{fill:#B3B5B7;}
	.st128{fill:#A8ACAF;}
	.st129{fill:#9EA2A5;}
	.st130{fill:#979A9D;}
	.st131{clip-path:url(#SVGID_4_);fill:#CAE9E6;}
	.st132{clip-path:url(#SVGID_6_);}
	.st133{clip-path:url(#SVGID_8_);}
	.st134{clip-path:url(#SVGID_10_);}
	.st135{clip-path:url(#SVGID_12_);}
	.st136{clip-path:url(#SVGID_14_);}
	.st137{clip-path:url(#SVGID_16_);}
	.st138{clip-path:url(#SVGID_18_);}
	.st139{clip-path:url(#SVGID_20_);}
	.st140{clip-path:url(#SVGID_22_);}
	.st141{clip-path:url(#SVGID_24_);}
	.st142{clip-path:url(#SVGID_26_);}
	.st143{fill:#2B2924;}
	.st144{fill:#997450;}
	.st145{fill:#F7CEAF;}
	.st146{fill:#E8BDAC;}
	.st147{fill:#FFE5CB;}
	.st148{fill:#309175;}
	.st149{fill:#D8D8D8;}
	.st150{fill:#E2E4E8;}
	.st151{fill:#D2D3D7;}
	.st152{fill:#BDBEC3;}
	.st153{fill:#CDCFD4;}
</style>
<circle class="st14" cx="38.4" cy="38.4" r="28.7"/>
<g>
	<g>
		<polygon class="st6" points="70.1,40.6 34.2,39.4 6.6,50 52.7,51.9 		"/>
	</g>
	<g>
		<polygon class="st5" points="69.6,38.9 33.6,37.6 5.9,48.2 52.2,50.1 		"/>
	</g>
	<g>
		<polygon class="st6" points="69.6,36.4 33.8,35.1 6.1,45.7 52.2,47.6 		"/>
	</g>
	<g>
		<polygon class="st5" points="71.1,34.1 35.2,32.9 7.5,43.5 53.7,45.4 		"/>
	</g>
</g>
<g>
	<g>
		<polygon class="st6" points="69.6,32.9 33.7,31.6 6.1,42.2 52.2,44.1 		"/>
	</g>
	<g>
		<polygon class="st5" points="71.1,30.5 35.2,29.3 7.4,39.8 53.7,41.8 		"/>
	</g>
	<g>
		<polygon class="st6" points="71.2,27.9 35.3,26.8 7.6,37.4 53.8,39.2 		"/>
	</g>
	<g>
		<polygon class="st5" points="72.6,25.7 36.7,24.6 9,35.1 55.2,37 		"/>
	</g>
	<g>
		<polygon class="st6" points="72.7,23.9 36.9,22.7 9.1,33.3 55.3,35.2 		"/>
		<g>
			<polygon class="st30" points="55.4,31.9 20.7,30.5 18.2,31.5 53.6,32.9 			"/>
			<polygon class="st30" points="58.7,29.9 25.4,28.6 23.1,29.6 57,30.8 			"/>
			<polygon class="st30" points="61.7,28.1 29.7,26.9 27.6,27.8 60.1,29 			"/>
			<polygon class="st30" points="64.4,26.4 33.7,25.3 31.8,26.1 63,27.3 			"/>
			<polygon class="st30" points="66.9,24.9 37.4,23.9 35.6,24.6 65.6,25.7 			"/>
		</g>
	</g>
</g>
<g>
	<g>
		<polygon class="st150" points="4.4,31.9 33.2,33.1 24.4,24.3 		"/>
		<path class="st151" d="M37.7,21.6c-2.7,2.5-7,3-10.6,1.7l-2.7,1l8.8,8.8l17.3,0.7l17.4-11.2L37.7,21.6z"/>
		<path class="st150" d="M37.7,21.6L32,21.4l-4.9,1.9C30.8,24.6,35,24.1,37.7,21.6z"/>
		<g>
			<polygon class="st152" points="48.8,31.6 50.5,30.6 29.7,29.7 30.9,30.9 			"/>
			<polygon class="st153" points="29.7,29.7 15.9,29.2 13.4,30.2 30.9,30.9 			"/>
			<polygon class="st152" points="53.8,28.6 27.6,27.6 28.7,28.6 52.2,29.6 			"/>
			<polygon class="st153" points="20.7,27.4 18.3,28.3 28.7,28.6 27.6,27.6 			"/>
			<polygon class="st153" points="25,25.7 22.8,26.5 26.7,26.6 25.7,25.7 			"/>
			<polygon class="st152" points="56.8,26.8 25.7,25.7 26.7,26.6 55.4,27.7 			"/>
			<polygon class="st152" points="29,24 26.9,24.8 58.2,26 59.6,25.1 			"/>
			<polygon class="st152" points="32.6,22.6 30.8,23.3 60.9,24.4 62.1,23.6 			"/>
		</g>
	</g>
</g>
<g>
	<path class="st148" d="M30.6,27.9c0.6,0.1,1.5,0.1,3.1,0.3c-0.1-0.7-0.1-1.4-0.2-2.1c-1.6,0.3-2.5,0.6-3.1,0.7L30.6,27.9z"/>
	<polygon class="st148" points="60.7,23.3 64,23 62.7,27.1 60.3,27.3 	"/>
	<path class="st13" d="M50.9,28l-0.3-4.2c-0.4,0-0.8,0.1-1.2,0.1l0.3,4.1C50,28,50.5,28,50.9,28z"/>
	<path class="st20" d="M47.9,24.2c-4.2,0.5-8.3,1.1-14.3,1.8c0.1,0.8,0.1,1.5,0.2,2.4c6.1-0.1,10.3-0.1,14.5-0.3L47.9,24.2z"/>
	<path class="st20" d="M60.2,23.7c0,0,0.1-0.7-0.7-1.3c-0.8-0.6-2.5-0.8-4.8-0.5c-4.5,0.4-10.2,0.7-10.3,0.7c0,0,1,1.8,3.3,0.8
		c1.6-0.1,8.4-0.3,8.5-0.3c0,0,0.5,0,0.8,0.2c0.2,0.1,0.3,0.3,0.2,0.8c-0.2,0.4-0.1,0.6,0.1,0.7C57.8,25,59.5,24,60.2,23.7
		L60.2,23.7L60.2,23.7z"/>
	<path class="st148" d="M49.6,28.1L49.3,24c-0.5,0.1-1,0.1-1.4,0.2l0.3,3.9C48.7,28.1,49.1,28.1,49.6,28.1z"/>
	<path class="st20" d="M61.3,27.3c-0.1-1.4-0.2-2.8-0.3-4.2c-4.2,0.2-7.5,0.4-10.4,0.8l0.3,4.2C53.8,27.9,57.2,27.7,61.3,27.3z"/>
	<path class="st13" d="M30.5,26.8c-0.2,0-0.4,0.1-0.7,0.2c-0.4,0.2-0.7,0.3-0.9,0.5c0.3,0.1,0.5,0.3,0.9,0.3
		c0.3,0.1,0.6,0.1,0.8,0.2C30.6,27.6,30.6,27.2,30.5,26.8z"/>
</g>
<path class="st17" d="M44.4,32.5c-4.3-3.9-10.8-3.7-14.7,0.6C25.8,37.4,26,44,30.3,47.9c3.9,3.7,9.9,3.7,13.9,0.2l3.9,3.5l-0.9,1
	l15.2,14l3.4-3.8l-15.2-14l-0.9,1l-3.9-3.5C49,42.1,48.5,36.2,44.4,32.5z M34.6,47.9c-4.1-1.6-6.3-6.2-4.9-10.4
	c1.6-4.1,6.2-6.3,10.4-4.9c4.1,1.6,6.3,6.2,4.9,10.4S38.8,49.3,34.6,47.9z"/>
</svg>
