<svg id="Layer_1" data-name="Layer 1" xmlns="http://www.w3.org/2000/svg" viewBox="0 0 634 192"><defs><style>.cls-1{fill:#42cea9;}.cls-2{fill:#fff;}</style></defs><path class="cls-1" d="M31.89.18h147a32.35,32.35,0,0,1,32.3,32.3V160a32.35,32.35,0,0,1-32.3,32.3h-147A32.35,32.35,0,0,1-.41,160V32.48A32.35,32.35,0,0,1,31.89.18Z"/><path class="cls-2" d="M178.09,69.38a15.72,15.72,0,0,1-8.3-1.1c-1.5-.7-2.5-1.2-2.8-2.8-.3-1.4.8-2.7,1.5-3.6a11.23,11.23,0,0,1,2-1.8,15.52,15.52,0,0,0-2.1-.4c-4.9-.3-9.8-.7-14.7-.9-4.5-.1-9.5.4-13.6-1.8-5.7-3.1-7.9-10.3-12.1-14.9a19.79,19.79,0,0,0-14.9-6.3H77.19a10.19,10.19,0,0,0-8.4,4.3l-16.2,22.5-.1.1,28.5,28,6.9,5.8.4.3c1.6,1.3,6.5,3,10,3.6s12.2.5,12.2.5l42.3,2.2a10.72,10.72,0,0,0,7.3-2.2l14.1-9.1a10.53,10.53,0,0,0,4-8.2V70C178.09,69.88,178.09,69.68,178.09,69.38Zm-50-4.7a16.54,16.54,0,0,1-9.1-1c-1.5-.7-2.5-1.2-2.8-2.8-.3-1.4.8-2.7,1.5-3.6,1.7-2,4.7-3.7,7.6-3.1a3.75,3.75,0,0,1,2.6,1.5,6.47,6.47,0,0,1,.1,3.1,2.56,2.56,0,0,0,1,2.4c.7.5,2.1.1,2.5,1,.3,1.4-2.6,2.4-3.4,2.5Z"/><path class="cls-2" d="M115.29,107.48c-4.1,17.5-19.1,60.4-19.1,60.4s-43.3,8.3-69.3-37l36.8-42.2C63.69,88.78,89.69,86.18,115.29,107.48Z"/><path class="cls-1" d="M153.59,111.38h-1.4l-41.9-2.2c-4.4,0-8.8-.2-13.1-.6-3.6-.5-10.6-2.4-14.1-5.4l-7.5-6.3L42,63.88l4-5.7,16.2-22.6a18.67,18.67,0,0,1,15-7.7h35.9a28,28,0,0,1,20.9,8.9,42.55,42.55,0,0,1,5,7c1.7,2.7,3.3,5.3,5,6.2,1.5.8,4.3.8,6.7.8h3.2q5.4.15,10.8.6l4.2.3a23.18,23.18,0,0,1,3.8.6l17,4.7-5.2,3.5,1-.1.7,8.4c0,.5.1,1,.1,1.4v13.6a18.48,18.48,0,0,1-7.1,14.6l-.3.2-14.3,9.2a18.8,18.8,0,0,1-11,3.6Z"/><path class="cls-2" d="M178.09,69.38a15.72,15.72,0,0,1-8.3-1.1c-1.5-.7-2.5-1.2-2.8-2.8-.3-1.4.8-2.7,1.5-3.6a11.23,11.23,0,0,1,2-1.8,15.52,15.52,0,0,0-2.1-.4c-4.9-.3-9.8-.7-14.7-.9-4.5-.1-9.5.4-13.6-1.8-5.7-3.1-7.9-10.3-12.1-14.9a19.79,19.79,0,0,0-14.9-6.3H77.19a10.19,10.19,0,0,0-8.4,4.3l-16.2,22.5-.1.1,28.5,28,6.9,5.8.4.3c1.6,1.3,6.5,3,10,3.6s12.2.5,12.2.5l42.3,2.2a10.72,10.72,0,0,0,7.3-2.2l14.1-9.1a10.53,10.53,0,0,0,4-8.2V70C178.09,69.88,178.09,69.68,178.09,69.38Zm-50-4.7a16.54,16.54,0,0,1-9.1-1c-1.5-.7-2.5-1.2-2.8-2.8-.3-1.4.8-2.7,1.5-3.6,1.7-2,4.7-3.7,7.6-3.1a3.75,3.75,0,0,1,2.6,1.5,6.47,6.47,0,0,1,.1,3.1,2.56,2.56,0,0,0,1,2.4c.7.5,2.1.1,2.5,1,.3,1.4-2.6,2.4-3.4,2.5Z"/><path class="cls-1" d="M88.89,137.48c-11.3,0-27.6-4.7-42-16.1a81.07,81.07,0,0,0-6.8-4.8c-5.8-3.9-11.7-7.9-13-18.6-1-9-.3-23.4-.1-26.4-.1-3.4.2-15.1,9.6-23.5,8.7-7.7,22.5-14.4,31.5-15.2l1.7,17.8c-4.7.4-15,5.2-21.3,10.8-3.7,3.3-3.6,8.8-3.6,9.4l.1.7-.1.6c-.3,4.3-.8,16.9,0,23.7.3,2.5.3,2.5,5.2,5.8,2.1,1.4,4.8,3.2,7.9,5.7,8.3,6.6,22.2,12.8,31.6,12.2.8-5.1-1.5-20.2-10-42.7-7.2-19.2-3-30.6-2.9-31.4l8.1-5a264.87,264.87,0,0,0,9.3,32.7c11.2,29.6,16.3,46.9,10.7,56.5a14.59,14.59,0,0,1-10.4,7.3A25,25,0,0,1,88.89,137.48Z"/><path class="cls-2" d="M84.79,40.58A68.07,68.07,0,0,0,88,73.78c6.4,17,17.4,52.4,4.9,54.5s-30.2-5.8-40.4-13.8-15.3-8.3-16.4-17.5,4.6-23.8,4.6-23.8a68.17,68.17,0,0,1,9-17.1c4.2-5.7,16.1-20,27.4-20"/><path class="cls-1" d="M300.59,73.68a17.23,17.23,0,0,1,6.2,4.1,19.34,19.34,0,0,1,4.1,6.5,24.55,24.55,0,0,1,1.5,8.5,20.94,20.94,0,0,1-2.4,10.4,17.26,17.26,0,0,1-6.6,6.8,18.65,18.65,0,0,1-9.5,2.4,15.4,15.4,0,0,1-5.6-1,14.75,14.75,0,0,1-4.7-2.7,12,12,0,0,1-3.3-4.1h-.1v23.3h-6.9V92.58a21.68,21.68,0,0,1,2.6-10.9,17.86,17.86,0,0,1,7-6.9,20.51,20.51,0,0,1,10-2.4A18.94,18.94,0,0,1,300.59,73.68Zm-14.3,6.2a13.24,13.24,0,0,0-4.6,4.8,17.39,17.39,0,0,0,0,15,12.14,12.14,0,0,0,11,6.6,12.17,12.17,0,0,0,11-6.7,16.73,16.73,0,0,0,0-14.8,13.53,13.53,0,0,0-4.6-4.9,13.24,13.24,0,0,0-12.8,0Z"/><path class="cls-1" d="M339.19,112.28a19.6,19.6,0,0,1-17.4-9.9,20.94,20.94,0,0,1,0-20.3,19.62,19.62,0,0,1,7.1-7.2,20.58,20.58,0,0,1,10.3-2.7,20.2,20.2,0,0,1,10.4,2.7,18.88,18.88,0,0,1,7.1,7.2,20.94,20.94,0,0,1,0,20.3,18.88,18.88,0,0,1-7.1,7.2A19.28,19.28,0,0,1,339.19,112.28Zm.1-5.9a11.69,11.69,0,0,0,6.8-1.9,12.61,12.61,0,0,0,4.6-5.1,16.32,16.32,0,0,0,0-14.3,12.5,12.5,0,0,0-11.4-7,12.21,12.21,0,0,0-6.9,1.9,11.94,11.94,0,0,0-4.6,5.1,16.32,16.32,0,0,0,0,14.3,13.28,13.28,0,0,0,4.6,5.1A11.79,11.79,0,0,0,339.29,106.38Z"/><path class="cls-1" d="M371.69,67.08a4.72,4.72,0,0,1-4.6-4.6,4.65,4.65,0,0,1,9.3-.1,4.76,4.76,0,0,1-1.4,3.4A5.07,5.07,0,0,1,371.69,67.08Zm-3.6,44.3V73.18h7v38.2Z"/><path class="cls-1" d="M386,111.38V89.28a16.46,16.46,0,0,1,2.3-8.9,15.81,15.81,0,0,1,6.3-6,20.76,20.76,0,0,1,18.5,0,16.27,16.27,0,0,1,8.6,14.9v22.1h-6.9v-22a10.78,10.78,0,0,0-5.5-9.9,11.28,11.28,0,0,0-10.7,0,10,10,0,0,0-4,3.9,10.54,10.54,0,0,0-1.5,6v22Z"/><path class="cls-1" d="M428.19,79.08v-5.9h26.6v5.9Zm17.4,32.3a10.61,10.61,0,0,1-8-2.9,10.93,10.93,0,0,1-2.9-7.9v-37h6.9v36.5A5.11,5.11,0,0,0,443,104a5.05,5.05,0,0,0,3.9,1.5h7.7v5.9Z"/><path class="cls-1" d="M481.29,111.38a24.06,24.06,0,0,1-11.2-2.4,18.27,18.27,0,0,1-7.6-6.7,17.85,17.85,0,0,1-2.7-10.1,21.2,21.2,0,0,1,2.3-10.2,18.75,18.75,0,0,1,6.5-7.2,17.15,17.15,0,0,1,9.6-2.6,19,19,0,0,1,9.9,2.5,15.87,15.87,0,0,1,5.9,6.9,22.66,22.66,0,0,1,2,9.6v1.7a8.75,8.75,0,0,1-.2,1.6h-28.6a12,12,0,0,0,2.3,6,12.37,12.37,0,0,0,5,3.7,16.94,16.94,0,0,0,6.7,1.2h10v5.9h-9.9Zm-14.2-21.6h21.8a15.26,15.26,0,0,0-.3-3,14.08,14.08,0,0,0-1-3.1,11,11,0,0,0-2-2.8,7.89,7.89,0,0,0-3.1-2,12.6,12.6,0,0,0-4.3-.8,10.3,10.3,0,0,0-4.6,1,11.28,11.28,0,0,0-3.4,2.7,13,13,0,0,0-2.2,3.8A15,15,0,0,0,467.09,89.78Z"/><path class="cls-1" d="M504.39,111.38V84a10,10,0,0,1,10.9-10.9h7.9V79h-6.6a5.25,5.25,0,0,0-3.9,1.4,5.33,5.33,0,0,0-1.4,4v26.9Z"/><path class="cls-1" d="M531.79,112.18a5,5,0,0,1,0-9.9,5.06,5.06,0,0,1,5,4.9,4.51,4.51,0,0,1-.7,2.5,5.17,5.17,0,0,1-1.8,1.8A5.53,5.53,0,0,1,531.79,112.18Z"/><path class="cls-1" d="M550.89,126.58v-5.9h18.7a5.64,5.64,0,0,0,4.3-1.6,5.93,5.93,0,0,0,1.5-4.4v-10.5h-.2a18.34,18.34,0,0,1-3.4,3.9,14.75,14.75,0,0,1-4.7,2.7,17,17,0,0,1-5.9,1,17.8,17.8,0,0,1-9.5-2.5,17.52,17.52,0,0,1-6.5-7,23.54,23.54,0,0,1,0-20.4,17,17,0,0,1,6.7-7.1,22.6,22.6,0,0,1,21-.1,17.22,17.22,0,0,1,6.8,7.1,21.7,21.7,0,0,1,2.4,10.6V115a11.43,11.43,0,0,1-3.1,8.4,11,11,0,0,1-8.4,3.1Zm11.6-20.7a12.24,12.24,0,0,0,11.2-6.7,16.33,16.33,0,0,0,0-14.1,12.85,12.85,0,0,0-17.9-5,11.57,11.57,0,0,0-4.3,5,14.82,14.82,0,0,0-1.5,7.2,16.49,16.49,0,0,0,1.5,6.9,13.06,13.06,0,0,0,4.3,5A12.19,12.19,0,0,0,562.49,105.88Z"/><path class="cls-1" d="M612.49,111.38a24.06,24.06,0,0,1-11.2-2.4,18.27,18.27,0,0,1-7.6-6.7,17.85,17.85,0,0,1-2.7-10.1,21.2,21.2,0,0,1,2.3-10.2,18.75,18.75,0,0,1,6.5-7.2,17.15,17.15,0,0,1,9.6-2.6,19,19,0,0,1,9.9,2.5,15.87,15.87,0,0,1,5.9,6.9,24.28,24.28,0,0,1,2,9.6v1.7a8.75,8.75,0,0,1-.2,1.6h-28.5a12,12,0,0,0,2.3,6,12.37,12.37,0,0,0,5,3.7,16.94,16.94,0,0,0,6.7,1.2h10v5.9h-10Zm-14.3-21.6H620a15.26,15.26,0,0,0-.3-3,11.24,11.24,0,0,0-1-3.1,11,11,0,0,0-2-2.8,9.19,9.19,0,0,0-3.1-2,12.6,12.6,0,0,0-4.3-.8,10.3,10.3,0,0,0-4.6,1,11.28,11.28,0,0,0-3.4,2.7,13,13,0,0,0-2.2,3.8A18.4,18.4,0,0,0,598.19,89.78Z"/></svg>