<svg id="Layer_1" data-name="Layer 1" xmlns="http://www.w3.org/2000/svg" viewBox="0 0 212 192"><defs><style>.cls-1{fill:#42cea9;}</style></defs><path class="cls-1" d="M130,58.78a2.56,2.56,0,0,0,1,2.4c.7.5,2.1.1,2.5,1,.3,1.4-2.6,2.4-3.4,2.5a16.54,16.54,0,0,1-9.1-1c-1.5-.7-2.5-1.2-2.8-2.8-.3-1.4.8-2.7,1.5-3.6,1.7-2,4.7-3.7,7.6-3.1a3.75,3.75,0,0,1,2.6,1.5A6.47,6.47,0,0,1,130,58.78Z"/><path class="cls-1" d="M179.89.18h-147A32.35,32.35,0,0,0,.59,32.48V160a32.35,32.35,0,0,0,32.3,32.3h147a32.35,32.35,0,0,0,32.3-32.3V32.48A32.35,32.35,0,0,0,179.89.18Zm-.7,83.4a10.53,10.53,0,0,1-4,8.2l-14.1,9.1a10.72,10.72,0,0,1-7.3,2.2l-42.3-2.2s-1.9,0-4.29,0l-2.54-.06c-.17-.59-.34-1.18-.53-1.78-2.21-7.34-5.28-15.9-9-25.84a264.87,264.87,0,0,1-9.3-32.7l-.08.05.08,0A68.07,68.07,0,0,0,89,73.78c2.12,5.64,4.75,13.3,6.86,21.1.46,1.67.89,3.36,1.28,5,.71,3,1.3,5.93,1.73,8.72,1.59,10.33.9,18.66-5,19.65-12.6,2.1-30.2-5.8-40.4-13.8-2.65-2.1-5-3.67-6.93-5-5.65-3.8-8.66-5.68-9.47-12.49-1.1-9.2,4.6-23.8,4.6-23.8a68.89,68.89,0,0,1,3.18-7.45,64.23,64.23,0,0,1,5.82-9.65c3.15-4.27,10.63-13.38,18.93-17.67a22.65,22.65,0,0,1,4.31-1.72,10.15,10.15,0,0,1,4.26-.91h35.9a19.79,19.79,0,0,1,14.9,6.3c4.2,4.6,6.4,11.8,12.1,14.9,4.1,2.2,9.1,1.7,13.6,1.8,4.9.2,9.8.6,14.7.9a15.52,15.52,0,0,1,2.1.4,11.23,11.23,0,0,0-2,1.8c-.7.9-1.8,2.2-1.5,3.6.3,1.6,1.3,2.1,2.8,2.8a15.72,15.72,0,0,0,8.3,1.1c0,.3,0,.5.1.6Zm-82,84.3s-43.3,8.3-69.3-37l12.74-14.61.46.31a81.07,81.07,0,0,1,6.8,4.8c14.4,11.4,30.7,16.1,42,16.1a25,25,0,0,0,5.5-.5,14.59,14.59,0,0,0,10.4-7.3c2.78-4.77,2.92-11.44,1-20.58,1.5.06,3,.08,4.52.08l4.52.24C111.15,128,97.19,167.88,97.19,167.88Z"/></svg>