<svg xmlns="http://www.w3.org/2000/svg" xmlns:xlink="http://www.w3.org/1999/xlink" width="541.344" height="376.858" viewBox="0 0 541.344 376.858"><defs><clipPath id="a"><rect width="541.344" height="376.858" fill="none"/></clipPath><clipPath id="c"><path d="M350.786,289.236c48.7,12.152,188.021,47.126,286.79,73.949-16.2-41.769-130.318-74.137-268.7-74.137q-9.121,0-18.093.187" transform="translate(-350.786 -289.049)" fill="none"/></clipPath><linearGradient id="d" x1="-0.881" y1="2.276" x2="-0.878" y2="2.276" gradientUnits="objectBoundingBox"><stop offset="0" stop-color="#fff"/><stop offset="1" stop-color="#caccce"/></linearGradient><clipPath id="f"><path d="M0,399.146c0,46.594,121.185,84.365,270.672,84.365q6.35,0,12.629-.092c-108.6-48.7-228.6-87.5-276.993-102.462C2.18,386.815,0,392.9,0,399.146" transform="translate(0 -380.957)" fill="none"/></clipPath><linearGradient id="g" x1="0" y1="1" x2="0.003" y2="1" xlink:href="#d"/><clipPath id="j"><rect width="22.656" height="10.631" fill="none"/></clipPath><clipPath id="k"><rect width="25.45" height="9.515" fill="none"/></clipPath><clipPath id="l"><rect width="44.378" height="13.057" fill="none"/></clipPath><clipPath id="m"><rect width="17.434" height="20.722" fill="none"/></clipPath><clipPath id="n"><rect width="63.179" height="43.405" fill="none"/></clipPath><clipPath id="o"><rect width="5.825" height="3.638" fill="none"/></clipPath><clipPath id="p"><rect width="15.812" height="53.623" fill="none"/></clipPath><clipPath id="q"><rect width="53.299" height="54.143" fill="none"/></clipPath><clipPath id="r"><rect width="35.424" height="53.566" fill="none"/></clipPath><clipPath id="s"><rect width="49.128" height="20.052" fill="none"/></clipPath><clipPath id="t"><rect width="65.806" height="43.252" fill="none"/></clipPath><clipPath id="u"><rect width="33.804" height="16.077" fill="none"/></clipPath><clipPath id="v"><rect width="27.085" height="46.215" fill="none"/></clipPath><clipPath id="w"><rect width="97.294" height="92.539" fill="none"/></clipPath><clipPath id="x"><rect width="7.781" height="15.36" fill="none"/></clipPath><clipPath id="y"><rect width="27.975" height="11.439" fill="none"/></clipPath><clipPath id="z"><rect width="14.352" height="11.125" fill="none"/></clipPath></defs><g clip-path="url(#a)"><g clip-path="url(#a)"><path d="M541.345,373.415c0,46.594-121.184,84.365-270.672,84.365S0,420.009,0,373.415,121.184,289.05,270.672,289.05s270.672,37.772,270.672,84.365" transform="translate(0 -80.923)" fill="#b2b4b7"/><path d="M288.795,453.892l-22.822,7.632-26.484-10.058,22.927-7.291Z" transform="translate(-67.048 -124.352)" fill="#fff"/><path d="M359.443,456.1,335.332,464.6l-27.366-10.081,24.269-8.116Z" transform="translate(-86.219 -124.975)" fill="#fff"/><path d="M352.44,433.136l-20.975,7.014-26.25-9.361,21.1-6.711Z" transform="translate(-85.449 -118.726)" fill="#fff"/><path d="M420.022,435.329l-22.164,7.807L370.8,433.753l22.344-7.472Z" transform="translate(-103.811 -119.343)" fill="#fff"/><path d="M411.08,414l-19.343,6.468L365.77,411.73l19.489-6.2Z" transform="translate(-102.402 -113.534)" fill="#fff"/><path d="M475.849,416.176l-20.444,7.2L428.7,414.615l20.638-6.9Z" transform="translate(-120.019 -114.144)" fill="#fff"/><path d="M465.282,396.314l-17.9,5.984-25.651-8.188,18.053-5.741Z" transform="translate(-118.07 -108.729)" fill="#fff"/><path d="M527.463,398.461l-18.917,6.663-26.332-8.207,19.121-6.395Z" transform="translate(-135.002 -109.331)" fill="#fff"/><path d="M515.532,379.907l-16.6,5.552-25.31-7.69,16.771-5.333Z" transform="translate(-132.595 -104.268)" fill="#fff"/><path d="M575.322,382.027l-17.555,6.183L531.828,380.5l17.766-5.941Z" transform="translate(-148.892 -104.863)" fill="#fff"/><path d="M352.44,433.136l-20.975,7.014-26.25-9.361,21.1-6.711Z" transform="translate(-85.449 -118.726)" fill="#fff"/><path d="M420.022,435.329l-22.164,7.807L370.8,433.753l22.344-7.472Z" transform="translate(-103.811 -119.343)" fill="#fff"/><path d="M411.08,414l-19.343,6.468L365.77,411.73l19.489-6.2Z" transform="translate(-102.402 -113.534)" fill="#fff"/><path d="M475.849,416.176l-20.444,7.2L428.7,414.615l20.638-6.9Z" transform="translate(-120.019 -114.144)" fill="#fff"/><path d="M465.282,396.314l-17.9,5.984-25.651-8.188,18.053-5.741Z" transform="translate(-118.07 -108.729)" fill="#fff"/><path d="M527.463,398.461l-18.917,6.663-26.332-8.207,19.121-6.395Z" transform="translate(-135.002 -109.331)" fill="#fff"/><path d="M515.532,379.907l-16.6,5.552-25.31-7.69,16.771-5.333Z" transform="translate(-132.595 -104.268)" fill="#fff"/><path d="M575.322,382.027l-17.555,6.183L531.828,380.5l17.766-5.941Z" transform="translate(-148.892 -104.863)" fill="#fff"/><path d="M562.247,364.649,546.8,369.814l-24.952-7.241,15.62-4.968Z" transform="translate(-146.098 -100.116)" fill="#fff"/><path d="M619.823,366.741l-16.334,5.753-25.535-7.258L594.5,359.7Z" transform="translate(-161.805 -100.703)" fill="#fff"/><path d="M365.608,482.155l-22.534,8.378-28.618-10.868,22.693-7.993Z" transform="translate(-88.036 -132.05)" fill="#fff"/><path d="M438.765,484.345l-23.7,9.319L385.5,482.773l23.923-8.894Z" transform="translate(-107.925 -132.668)" fill="#fff"/><path d="M428.372,459.433l-20.643,7.674-28.272-10.083,20.823-7.334Z" transform="translate(-106.234 -125.896)" fill="#fff"/><path d="M498.244,461.612l-21.717,8.54-29.136-10.105,21.957-8.163Z" transform="translate(-125.253 -126.51)" fill="#fff"/><path d="M486.023,438.552l-18.98,7.056-27.883-9.387,19.174-6.754Z" transform="translate(-122.948 -120.235)" fill="#fff"/><path d="M552.891,440.716,532.92,448.57l-28.676-9.408,20.223-7.519Z" transform="translate(-141.169 -120.844)" fill="#fff"/><path d="M539.16,419.3l-17.511,6.51-27.468-8.768L511.9,410.8Z" transform="translate(-138.352 -115.009)" fill="#fff"/><path d="M603.272,421.443l-18.429,7.246-28.2-8.787,18.686-6.947Z" transform="translate(-155.841 -115.612)" fill="#fff"/><path d="M588.294,401.488l-16.205,6.025L545.055,399.3l16.415-5.782Z" transform="translate(-152.595 -110.17)" fill="#fff"/><path d="M649.868,403.609l-17.058,6.707-27.7-8.232,17.318-6.439Z" transform="translate(-169.407 -110.766)" fill="#fff"/><path d="M428.372,459.433l-20.643,7.674-28.272-10.083,20.823-7.334Z" transform="translate(-106.234 -125.896)" fill="#fff"/><path d="M498.244,461.612l-21.717,8.54-29.136-10.105,21.957-8.163Z" transform="translate(-125.253 -126.51)" fill="#fff"/><path d="M486.023,438.552l-18.98,7.056-27.883-9.387,19.174-6.754Z" transform="translate(-122.948 -120.235)" fill="#fff"/><path d="M552.891,440.716,532.92,448.57l-28.676-9.408,20.223-7.519Z" transform="translate(-141.169 -120.844)" fill="#fff"/><path d="M539.16,419.3l-17.511,6.51-27.468-8.768L511.9,410.8Z" transform="translate(-138.352 -115.009)" fill="#fff"/><path d="M603.272,421.443l-18.429,7.246-28.2-8.787,18.686-6.947Z" transform="translate(-155.841 -115.612)" fill="#fff"/><path d="M588.294,401.488l-16.205,6.025L545.055,399.3l16.415-5.782Z" transform="translate(-152.595 -110.17)" fill="#fff"/><path d="M649.868,403.609l-17.058,6.707-27.7-8.232,17.318-6.439Z" transform="translate(-169.407 -110.766)" fill="#fff"/><path d="M633.862,384.965l-15.04,5.592-26.588-7.716,15.254-5.373Z" transform="translate(-165.803 -105.677)" fill="#fff"/><path d="M693.089,387.06l-15.834,6.226-27.207-7.733,16.1-5.984Z" transform="translate(-181.989 -106.265)" fill="#fff"/><path d="M338.92,289.455l297.208,81.661c-3.911-45.531-123.551-82.066-270.571-82.066q-13.483,0-26.637.4" transform="translate(-94.885 -80.923)" fill="#ffc50c"/></g><g transform="translate(252.579 208.126)"><g clip-path="url(#c)"><rect width="286.79" height="74.137" transform="translate(0)" fill="url(#d)"/></g></g><g clip-path="url(#a)"><path d="M430.371,114.658,415.643,254.464l-3.73-1.144L424,114.658Z" transform="translate(-115.32 -32.1)" fill="#656668"/><path d="M42.578,163.167,81.21,337.026l5.153-1.089L48.46,160.831Z" transform="translate(-11.92 -45.027)" fill="#656668"/><path d="M297.838,481.847c-130-59.248-255.41-95.935-289.06-105.331C3.052,383.346,0,390.513,0,397.9c0,46.594,121.185,84.365,270.672,84.365q13.753,0,27.166-.42" transform="translate(0 -105.41)" fill="#ffc50c"/></g><g transform="translate(0 274.303)"><g clip-path="url(#f)"><rect width="283.302" height="102.554" transform="translate(0 0)" fill="url(#g)"/></g></g><g clip-path="url(#a)"><path d="M180.672,503.844c40.974,7.777,89.1,12.258,140.581,12.258q6.351,0,12.63-.092c-14.261-6.4-28.719-12.618-43.185-18.64-27.824-.038-68.067,1.131-110.026,6.475" transform="translate(-50.581 -139.245)"/><path d="M109.838,426.51A745.744,745.744,0,0,0,14.3,435.025c9.277,10.166,24.519,19.549,44.469,27.76,54.7-9.543,97.995-10.919,121.19-10.747-24.534-9.324-48.236-17.886-70.122-25.527" transform="translate(-4.004 -119.407)"/><path d="M31.029,388.617c-9.371-3-17.564-5.562-24.348-7.66a35.016,35.016,0,0,0-5.354,11.066c7.778-1.162,17.856-2.432,29.7-3.406" transform="translate(-0.372 -106.654)"/><path d="M734.217,387.09a41.6,41.6,0,0,0-8.126-12.658c-10.534.706-21.168,1.59-30.112,2.4,13.2,3.506,26.029,6.946,38.238,10.262" transform="translate(-194.848 -104.827)"/><path d="M584.486,316.509a510.594,510.594,0,0,0-85.435,7.331c20.362,5.185,41.981,10.723,63.862,16.378,30.486-3.469,61.266-3.826,77.251-3.719-15.107-7.545-33.934-14.29-55.678-19.99" transform="translate(-139.715 -88.611)"/><path d="M319.58,91.448C223.523,74.34,124.407,85.859,28.711,125.6Q18.329,79.9,7.947,34.189C118.414-4.14,224.056-10.5,331.577,16.407c-4.359,25.359-6.851,49.305-12,75.041" transform="translate(-2.225 0)"/><path d="M77.034,106.507Q72.7,77.9,68.35,49.152C81.137,45.581,94.1,42.408,107.356,39.6c.52,5.085.779,7.623,1.3,12.689C102.2,53.631,95.793,55.151,89.5,56.836c.454,3.571.68,5.353,1.133,8.913,6.813-1.866,10.24-2.727,17.133-4.312.529,5.057.792,7.58,1.318,12.618-6.767,1.676-10.132,2.581-16.819,4.533Q93.632,89.4,95,100.179c-6.072,1.94-12.087,4.059-17.967,6.328" transform="translate(-19.135 -11.087)" fill="#fff"/><path d="M132.089,92.574q-2.691-27.46-5.407-55.091c6.737-1.313,13.581-2.447,20.451-3.391q1.926,27.036,3.83,53.892c-6.356,1.363-12.672,2.9-18.874,4.59" transform="translate(-35.466 -9.544)" fill="#fff"/><path d="M162.924,85.461q-1.787-26.764-3.6-53.709c7.488-1.058,15.081-1.918,22.7-2.575q4.883,10.306,9.666,20.667-.242-10.695-.485-21.421c7.1-.557,14.275-.943,21.461-1.159q-.226,25.269-.447,50.338c-6.889.714-13.755,1.6-20.527,2.651q-5.127-11.567-10.378-23.063.469,12.307.935,24.572c-6.5,1.069-12.964,2.3-19.328,3.7" transform="translate(-44.606 -7.633)" fill="#fff"/><path d="M236.877,77.139q.339-24.964.685-50.128c7.18-.247,14.424-.332,21.674-.258q-1.162,24.444-2.3,48.681c-6.724.418-13.43.987-20.062,1.705" transform="translate(-66.317 -7.483)" fill="#fff"/><path d="M282.061,74.73c-4.29.173-7.468-.393-9.561-1.772s-3.017-3.812-2.753-7.293c.177-3.391.266-5.087.444-8.48,7.225-.28,14.517-.4,21.817-.361-.115,1.274-.171,1.91-.286,3.184-.194,2.159.585,3.229,2.339,3.219a2.745,2.745,0,0,0,2.123-.811,4.69,4.69,0,0,0,.918-2.69,9.878,9.878,0,0,0,.048-1.74,2.509,2.509,0,0,0-.39-1.2,2.9,2.9,0,0,0-1.026-.9,11.206,11.206,0,0,0-1.877-.791c-5.78-2.015-8.688-3.013-14.535-4.99-3.386-1.145-5.668-2.374-6.762-3.7a7.959,7.959,0,0,1-1.506-5.629l.266-5.05a7.632,7.632,0,0,1,3.846-6.531c2.424-1.45,5.96-2.115,10.591-1.969,7.692.207,15.439.579,23.186,1.108,4.709.3,8.172,1.267,10.368,2.823a6.184,6.184,0,0,1,2.718,6.344c-.291,2.057-.436,3.086-.726,5.144-7.536-.5-15.07-.855-22.553-1.056.022-.218.033-.328.055-.546q.306-3.066-2.582-3.165a2.977,2.977,0,0,0-1.974.561,2.181,2.181,0,0,0-.87,1.6,2.7,2.7,0,0,0,.042.871,1.433,1.433,0,0,0,.481.711,5.762,5.762,0,0,0,1.127.734,17.4,17.4,0,0,0,2.02.854c6.876,2.6,10.29,3.911,17.067,6.547a11.95,11.95,0,0,1,2.668,1.463,5.838,5.838,0,0,1,1.658,1.913,6.478,6.478,0,0,1,.7,2.62,17.18,17.18,0,0,1-.177,3.55c-.269,1.927-.4,2.891-.672,4.819-.613,3.793-2.087,6.408-4.406,7.877s-5.752,2.2-10.335,2.231c-7.193.014-14.376.18-21.492.5" transform="translate(-75.506 -7.616)" fill="#fff"/><path d="M339.51,75.249q3.222-22.231,6.534-44.667,11.221.922,22.516,2.246c-1.114,5.818-1.67,8.731-2.777,14.568,2.253.2,3.38.309,5.635.528,1.164-5.78,1.747-8.665,2.917-14.425q11.35,1.312,22.76,2.995-5.162,20.618-10.152,41.044-10.605-.863-21.16-1.373c1.468-7.424,2.2-11.127,3.684-18.519-2.218-.181-3.326-.268-5.541-.433-1.408,7.462-2.11,11.2-3.507,18.691-6.989-.344-13.972-.564-20.908-.654" transform="translate(-95.05 -8.562)" fill="#fff"/></g><g clip-path="url(#a)"><path d="M378.54,140.621c-16.163-7.9-23.791,8-29.483,15.538-13.35,17.688-4.28,21.356,8.054,25.722,5.12,1.812,18.9,3.723,18.9,3.723s2.6-18.527,3.875-30.669c0,0,1.9-12.891-1.341-14.315" transform="translate(-95.875 -38.768)" fill="#44caa5"/><path d="M150.537,366.045s.3,18.514,18.678,17.7c13.56,9.408,24.7,0,24.7,0,7.541,4.29,18.259-2.036,18.617-12.575a32.751,32.751,0,0,1-2.6-6.8c-7.612,7.412-38.925,16.73-59.4,1.68" transform="translate(-42.145 -102.008)" fill="#44caa5"/><g transform="translate(132.379 275.287)" style="mix-blend-mode:screen;isolation:isolate"><g clip-path="url(#j)"><path d="M199.586,389.011a45.132,45.132,0,0,1-8.049,3.936,19.991,19.991,0,0,1-7.686-1.338,43.8,43.8,0,0,0,22.656-9.286,25.959,25.959,0,0,1-6.921,6.688" transform="translate(-183.85 -382.323)" fill="#2b1c16"/></g></g><g transform="translate(108.392 264.036)" style="mix-blend-mode:screen;isolation:isolate"><g clip-path="url(#k)"><path d="M175.987,374.725a64.775,64.775,0,0,1-23.125.847,22.951,22.951,0,0,1-2.326-8.872c7.58,5.577,16.649,7.806,25.45,8.026" transform="translate(-150.537 -366.698)" fill="#2b1c16"/></g></g><g transform="translate(112.938 268.179)" style="mix-blend-mode:screen;isolation:isolate"><g clip-path="url(#l)"><path d="M187.9,376.2a1.5,1.5,0,0,0,.643-.543,64.195,64.195,0,0,0,12.685-3.2c-8.6,9.144-20.746,14.423-33.644,12.75a48.8,48.8,0,0,1-7.06-1.493,14.576,14.576,0,0,1-3.674-3.134c10.533,1,21.063.148,31.05-4.375" transform="translate(-156.85 -372.451)" fill="#2b1c16"/></g></g><g transform="translate(152.955 262.357)" style="mix-blend-mode:multiply;isolation:isolate"><g clip-path="url(#m)"><path d="M222.768,367.506a20.79,20.79,0,0,0,4.492-3.141,32.75,32.75,0,0,0,2.6,6.8c-.339,10-10.006,16.194-17.434,13.131,5.373-4.381,9.476-10.1,10.342-16.795" transform="translate(-212.426 -364.365)" fill="#c4f7e8"/></g></g><path d="M232.537,332.943a32.751,32.751,0,0,0,2.6,6.8c2.9,5.616,6.976,9.034,10.443,9.584-3-9.054-3.25-26.837.876-38.908,10.01-29.383,40.162-32.168,46.2-15.793s-4.42,40.084-22.107,48.93c0,0,3.977-.472,9.041-.529h.026c11.476-1.06,23.3-6.036,33.758-12.686a105.272,105.272,0,0,0,22.652-19.276,65.041,65.041,0,0,0,4.836-6.242,19.718,19.718,0,0,1-11.66.575s-6.627-14.792,1.958-20.744q2.447-1.7,4.775-3.334c-18.552-9.041-44.161-8.446-52.539-29.2-48.6,31.793-55.616,62.656-50.856,80.813" transform="translate(-64.749 -70.587)" fill="#44caa5"/><g transform="translate(212.932 229.084)" style="mix-blend-mode:screen;isolation:isolate"><g clip-path="url(#n)"><path d="M345.426,318.155a32.587,32.587,0,0,0,1.816,5.732,19.713,19.713,0,0,0,11.66-.575,65.045,65.045,0,0,1-4.836,6.242,105.272,105.272,0,0,1-22.652,19.276c-10.453,6.65-22.282,11.626-33.758,12.685h-.026c-.653.006-1.293.019-1.907.045,17.483-11.386,34.385-20.549,49.7-43.405" transform="translate(-295.723 -318.155)" fill="#201510"/></g></g><g transform="translate(205.798 269.335)" style="mix-blend-mode:screen;isolation:isolate"><g clip-path="url(#o)"><path d="M289.691,377.366c-2.352.156-3.877.33-3.877.33a37.085,37.085,0,0,0,5.826-3.638q-1.008,1.638-1.948,3.309" transform="translate(-285.815 -374.057)" fill="#2b1c16"/></g></g><g transform="translate(174.173 225.122)" style="mix-blend-mode:multiply;isolation:isolate"><g clip-path="url(#p)"><path d="M257.706,312.653a43.611,43.611,0,0,0-8.278,14.715c-4.126,12.071-3.87,29.853-.875,38.907a12.079,12.079,0,0,1-6.449-3.9c-.071-.446-.143-.885-.21-1.318" transform="translate(-241.894 -312.653)" fill="#c4f7e8"/></g></g><g transform="translate(217.885 181.542)" style="mix-blend-mode:multiply;isolation:isolate"><g clip-path="url(#q)"><path d="M349.167,305.4a23.18,23.18,0,0,0,3.874.556c-7.2,1.286-14.339-1.169-13.541-11.276.7-8.917.678-15.618-8.811-19.095-10.85-3.981-22.7-12.4-28.087-22.94.258-.174.5-.343.76-.517,8.378,20.749,33.986,20.155,52.539,29.2q-2.331,1.638-4.775,3.335c-8.584,5.951-1.958,20.743-1.958,20.743" transform="translate(-302.602 -252.129)" fill="#c4f7e8"/></g></g><path d="M251.147,323.069c-4.126,12.071-3.871,29.854-.876,38.908a17.311,17.311,0,0,0,1.144,2.772c16.513,5.312,55.957,5.176,53.96-2.52-1.5-5.738-12.755-6.669-21.072-6.552h-.026c-5.063.058-9.041.529-9.041.529,17.687-8.846,28.129-32.542,22.107-48.93s-36.187-13.589-46.2,15.793" transform="translate(-69.44 -83.232)" fill="#00b284"/><path d="M298.023,391.263a9.415,9.415,0,0,1-.982-.653c-5.587-4.3.769-7.871,3.412-9.079a34.612,34.612,0,0,1,6.753-2.475c5.512.743,10.323,2.449,11.266,6.061,1.011,3.9-8.581,5.848-20.449,6.146" transform="translate(-82.536 -106.121)" fill="#44caa5"/><g transform="translate(194.191 214.069)" style="mix-blend-mode:screen;isolation:isolate"><g clip-path="url(#r)"><path d="M287.022,312.182c-4.246-5.312-10.272-7.955-17.325-7.955,12.791-10.559,29.4-8.646,33.711,3.05,5.05,13.745-1.489,32.634-14.162,43.593,5.552-12.924,5.729-27.328-2.225-38.688" transform="translate(-269.696 -297.303)" fill="#2b1c16"/></g></g><path d="M307.738,330.156c1.027-12.478-6.776-27.1-18.01-32.581,8.656-1.28,16.517,2.19,19.289,9.705,2.895,7.877,1.977,17.428-1.712,26.21.194-1.105.342-2.216.433-3.335" transform="translate(-81.113 -83.237)" fill="#0ec092"/><path d="M302.427,218.31c.261.846.559,1.68.886,2.468,8.378,20.749,33.987,20.155,52.539,29.2,7.169-4.988,13.573-9.409,18.63-11.7A136.792,136.792,0,0,0,365.7,186.08c25.363-1.376,35.663-17.841,33.815-25.62-2.038-3-8.81.9-7.3-3.311a10.745,10.745,0,0,1,1.68-3.066l-.181-.139c-7.586-3.225-19.874.5-19.874.5a26.621,26.621,0,0,0-8.724-8.99,25.272,25.272,0,0,0-5.883-2.766c-4.772-1.539-12.747-3.836-20.171-1.617-23.2,6.922-9.813,28.74-9.813,28.74s-17.473,25.008-26.814,48.5" transform="translate(-84.668 -39.236)" fill="#44caa5"/><g transform="translate(235.341 138.45)" style="mix-blend-mode:multiply;isolation:isolate"><g clip-path="url(#s)"><path d="M326.846,198.734c1.451-2.391,2.814-4.565,4.016-6.452,12.478,8.543,28.177,12.972,43.6,13.9.549,1.654,1.037,3.289,1.508,4.911-17.228,3.806-35.774-1.344-49.127-12.355" transform="translate(-326.846 -192.282)" fill="#c4f7e8"/></g></g><g transform="translate(249.248 100.911)" style="mix-blend-mode:screen;isolation:isolate"><g clip-path="url(#t)"><path d="M356.518,170.54c-5.809-7.03-10.714-17.62-10.339-27.41a27.852,27.852,0,0,1,5.118-2.063c7.424-2.218,15.4.079,20.171,1.617a25.3,25.3,0,0,1,5.883,2.766,26.626,26.626,0,0,1,8.724,8.99s12.287-3.72,19.874-.5l.181.139a10.765,10.765,0,0,0-1.68,3.066c-1.506,4.215,5.266.307,7.3,3.312,1.425,6-4.384,17.152-18.739,22.583-13.108,1.57-27.784-1.968-36.5-12.5" transform="translate(-346.159 -140.147)" fill="#2b1c16"/></g></g><g transform="translate(256.056 194.661)" style="mix-blend-mode:multiply;isolation:isolate"><g clip-path="url(#u)"><path d="M358.248,279.323c6.148-3.419,12.678-6.6,19.651-7.936a66.519,66.519,0,0,1,11.519-1.04c.006,1.506-.007,2.967-.045,4.375-5.057,2.294-11.461,6.714-18.63,11.7a99.645,99.645,0,0,0-15.127-5.538c.865-.536,1.741-1.066,2.633-1.564" transform="translate(-355.615 -270.348)" fill="#c4f7e8"/></g></g><g transform="translate(262.738 146.84)" style="mix-blend-mode:screen;isolation:isolate"><g clip-path="url(#v)"><path d="M383.3,204.281a136.63,136.63,0,0,1,8.675,44.85c-45.941,9.46-22.529-50.259-8.675-44.85" transform="translate(-364.895 -203.934)" fill="#2b1c16"/></g></g><g transform="translate(217.759 100.92)" style="mix-blend-mode:multiply;isolation:isolate"><g clip-path="url(#w)"><path d="M329.241,169.809s-10.614-17.32,3.5-25.992a1.3,1.3,0,0,1,.145-.087c.485-.3,1-.577,1.542-.845.11-.057.213-.117.326-.165q.761-.366,1.606-.7c.152-.063.294-.13.449-.189.711-.27,1.451-.529,2.246-.761a19.21,19.21,0,0,1,2.058-.5c.061-.012.123-.026.181-.036.655-.122,1.321-.207,1.977-.268l.261-.026c.643-.052,1.286-.076,1.925-.084.1,0,.2,0,.294,0,.633,0,1.256.021,1.881.063a.992.992,0,0,1,.122.005l-.01,0c.23.018.462.028.695.049,8.085,3.216,14.2,8.714,20.323,15.852a25.688,25.688,0,0,1,5.609-1.845c2.452-.667,12.691-3.16,19.334-.341l.181.139a10.745,10.745,0,0,0-1.68,3.066c-1.506,4.215,5.266.307,7.306,3.312,1.289,5.439-3.358,15.106-14.924,20.916-8.856,2.992-17.6,4.762-20.921-1.05-.443-47.637-29.819-20.227-29.654-8.7.207,14.159-10.662,23.434-21.687,61.069a28.3,28.3,0,0,1-9.014-11.915c-.327-.788-.624-1.622-.886-2.469,9.341-23.5,26.814-48.5,26.814-48.5" transform="translate(-302.427 -140.159)" fill="#c4f7e8"/></g></g><g transform="translate(240.974 120.428)" style="mix-blend-mode:multiply;isolation:isolate"><g clip-path="url(#x)"><path d="M342.137,175.181a14.043,14.043,0,0,1-7.367,7.432c2.146-3.29,3.5-5.218,3.5-5.218a30.182,30.182,0,0,1-3.6-10.142c2.524,1.218,5.06,2.475,7.684,3.638.31,1.58-.213,3.463-.213,4.291" transform="translate(-334.668 -167.253)" fill="#c4f7e8"/></g></g><g transform="translate(281.244 113.394)" style="mix-blend-mode:multiply;isolation:isolate"><g clip-path="url(#y)"><path d="M390.612,167.438c-.274-1.49,2.834-6.456,7.347-8.013.349-.1.7-.189,1.1-.287,2.452-.667,12.691-3.16,19.335-.341l.18.139c-.655.82-1.492,4.136-1.9,5.233-3.438,1.317-25.283,7.558-26.062,3.27" transform="translate(-390.596 -157.483)" fill="#c4f7e8"/></g></g><path d="M345.289,353.262v.013s1.974,10.578,6.187,17.215,18.678,5.428,21.379,1.758c2.686-3.664.621-9.3-5.7-8.394-6.333.924-5.124-19.871.788-29.867a105.278,105.278,0,0,1-22.652,19.276" transform="translate(-96.668 -93.503)" fill="#44caa5"/><g transform="translate(262.974 266.88)" style="mix-blend-mode:screen;isolation:isolate"><g clip-path="url(#z)"><path d="M369.006,381.374c-6-1.977-4.037-7.948.164-10.727.662,2.339,1.825,3.723,3.563,3.471,4.966-.7,7.289,2.6,6.769,5.842-3.208,1.156-7.208,2.494-10.5,1.415" transform="translate(-365.223 -370.647)" fill="#2b1c16"/></g></g><path d="M367.942,333.986a33.8,33.8,0,0,0-3.322,8.316,80.94,80.94,0,0,0-14.407,25.952,64.488,64.488,0,0,1-4.924-14.979v-.013a105.282,105.282,0,0,0,22.653-19.276" transform="translate(-96.668 -93.503)" fill="#00b284"/><path d="M391.686,275.767c-5.056,2.294-11.461,6.715-18.63,11.7q-2.331,1.638-4.775,3.335c-8.584,5.951-1.958,20.743-1.958,20.743a19.7,19.7,0,0,0,11.66-.575c11.932-4.452,16.239-20.129,16.239-20.129,2.621,12.886,16.689,17.486,20.714,13.474,4.013-4.027,3.612-9.241-1.67-12.059-7.826-4.162-7.167-13.357-12.388-17.266-2.051-1.538-5.208-1.027-9.192.775" transform="translate(-101.873 -76.732)" fill="#00b284"/><path d="M420.408,285.5c1.593,3.689,3.312,7.612,7.712,9.957,5.283,2.818,5.683,8.033,1.671,12.058-1.758,1.751-5.428,1.861-9.231.356a15.932,15.932,0,0,1-2.85-2.689c-1.186-5.841-1.486-15.056,2.7-19.683" transform="translate(-116.727 -79.928)" fill="#0ec092"/><path d="M427.031,161.841c-1.506,4.215,5.266.307,7.3,3.312a8.347,8.347,0,0,0,.207-5.564c-1.483-3.784-4-3.1-5.832-.814a10.727,10.727,0,0,0-1.679,3.066" transform="translate(-119.492 -43.928)" fill="#002c1a"/><path d="M429.364,161.71a.824.824,0,1,0,1.151-.643.954.954,0,0,0-1.151.643" transform="translate(-120.175 -45.078)" fill="#fff"/><path d="M372.058,164.816a15.024,15.024,0,0,1,1.431,3.787,4.709,4.709,0,0,1,.029,1.946,1.354,1.354,0,0,1-1.189,1.13,5.756,5.756,0,0,1-3.541-1.493,28.654,28.654,0,0,1-3.012-2.751l-.187.171a8.284,8.284,0,0,0,1.961,4.176,7.115,7.115,0,0,0,1.877,1.635,5.124,5.124,0,0,0,3.208.788,3.79,3.79,0,0,0,2.252-1.111,3.937,3.937,0,0,0,.976-1.984,5.1,5.1,0,0,0-.385-2.914,6.848,6.848,0,0,0-3.2-3.506Z" transform="translate(-102.351 -46.107)" fill="#002c1a"/><path d="M389.629,153.947a10.581,10.581,0,0,1,1.509,2.892c.135.5.113,1.065-.271,1.225a2.012,2.012,0,0,1-1.435-.139,9.325,9.325,0,0,1-2.733-1.735,21.8,21.8,0,0,1-2.288-2.393l-.2.15a6.261,6.261,0,0,0,1.138,3.746,6.663,6.663,0,0,0,3.188,2.612,5.81,5.81,0,0,0,1.334.318,3.7,3.7,0,0,0,2.074-.4,3,3,0,0,0,1.109-1.066,2.768,2.768,0,0,0,.378-1.251,3,3,0,0,0-.33-1.585,4.855,4.855,0,0,0-3.267-2.525Z" transform="translate(-107.564 -43.057)" fill="#002c1a"/><path d="M330.817,185.866c19.8,18.262,46.555,16.43,46.555,16.43l.343,7.386c-32.843.723-49.935-17.926-49.935-17.926Z" transform="translate(-91.766 -52.035)" fill="#fdc300"/><path d="M331.2,152.359c-14.914-10.061-24.669,4.626-31.351,11.307-15.669,15.67-7.195,20.558,4.416,26.59,4.819,2.5,18.2,6.3,18.2,6.3s5.14-17.988,8.084-29.836c0,0,3.667-12.5.653-14.363" transform="translate(-81.55 -41.697)" fill="#44caa5"/></g></g></svg>