<svg xmlns="http://www.w3.org/2000/svg" xmlns:xlink="http://www.w3.org/1999/xlink" width="143.804" height="142.479" viewBox="0 0 143.804 142.479"><defs><clipPath id="a"><rect width="114.706" height="87.85" transform="translate(0 0)" fill="none"/></clipPath></defs><g transform="translate(143.804 64.25) rotate(137)"><g clip-path="url(#a)"><path d="M14.712,40.62a4.727,4.727,0,0,0,4.62,1.2c1.287-.366,1.47-1.1,3.816-3.282,2.007-1.867,3.01-2.8,4.318-3.315,1.908-.751,2.449-.039,6.026-.4,3.184-.325,5.061-.516,5.925-1.91,1.06-1.71.156-4.526-1.408-5.958A9.672,9.672,0,0,0,35.4,25.616c-3.548-1.563-3.669-1.4-5.19-2.175-2.505-1.268-2.541-1.882-4.721-2.71-1.715-.651-2.573-.977-3.583-.769-3.007.62-4.492,5.1-5.087,6.9-.463,1.4-.223,1.269-.8,3.08-1.047,3.276-1.817,3.657-2.141,5.692-.2,1.244-.552,3.461.838,4.988" fill="#42cea9"/><path d="M.311,21.407C-.364,22.6.222,24.093.546,24.922c1.367,3.49,5.68,6.5,9.443,5.421.443-.127,2.755-.846,3.347-2.746.791-2.54-2.017-5.508-4.488-6.761-2.961-1.5-7.354-1.516-8.537.571" fill="#42cea9"/><path d="M6.94,5.435c-1.152.739-1.331,2.335-1.43,3.22-.418,3.724,2,8.395,5.827,9.2.451.094,2.833.535,4.241-.87,1.884-1.878.783-5.813-.819-8.074C12.84,6.2,8.959,4.14,6.94,5.435" fill="#42cea9"/><path d="M22,.035c-1.348.237-2.129,1.64-2.562,2.418-1.824,3.274-1.4,8.515,1.824,10.734.38.261,2.406,1.587,4.248.835,2.463-1.005,2.967-5.06,2.362-7.764C27.149,3.018,24.365-.38,22,.035" fill="#42cea9"/><path d="M37.364,6.495c-1.316-.377-2.632.543-3.362,1.053C30.93,9.694,29.017,14.591,30.945,18c.227.4,1.469,2.481,3.454,2.611,2.654.173,4.881-3.252,5.521-5.948.766-3.23-.25-7.5-2.556-8.165" fill="#42cea9"/><path d="M79.7,84.964a4.723,4.723,0,0,0,3.82,2.864c1.329.149,1.777-.46,4.774-1.592,2.565-.968,3.847-1.452,5.252-1.433,2.05.028,2.282.892,5.73,1.909,3.07.906,4.88,1.439,6.207.477,1.63-1.182,1.859-4.13.954-6.048-.136-.289-.3-.56-1.91-2.228-2.691-2.791-2.863-2.69-3.979-3.978-1.838-2.123-1.639-2.7-3.343-4.3-1.34-1.253-2.01-1.879-3.024-2.069-3.018-.565-6.09,3.021-7.321,4.458-.959,1.12-.688,1.089-1.909,2.546-2.21,2.635-3.067,2.7-4.138,4.457-.654,1.076-1.821,3-1.113,4.934" fill="#42cea9"/><path d="M73.65,61.728c-1.075.847-1.1,2.452-1.114,3.342-.057,3.747,2.8,8.164,6.686,8.594.458.05,2.871.26,4.138-1.274,1.694-2.051.219-5.861-1.593-7.957-2.171-2.512-6.232-4.189-8.117-2.7" fill="#42cea9"/><path d="M85.835,49.457c-1.346.248-2.116,1.657-2.543,2.438-1.8,3.289-1.332,8.526,1.91,10.719.381.258,2.418,1.568,4.254.8,2.455-1.025,2.926-5.083,2.3-7.783-.75-3.234-3.562-6.61-5.921-6.176" fill="#42cea9"/><path d="M101.82,50.164c-1.337-.291-2.592.712-3.287,1.267-2.928,2.34-4.52,7.351-2.377,10.625.252.386,1.625,2.381,3.615,2.383,2.66,0,4.662-3.56,5.126-6.292.557-3.272-.733-7.472-3.077-7.983" fill="#42cea9"/><path d="M113.591,61.961c-1.075-.847-2.642-.495-3.51-.3-3.656.822-7.281,4.631-6.788,8.513.059.457.42,2.852,2.208,3.724,2.391,1.166,5.75-1.16,7.363-3.413,1.933-2.7,2.611-7.04.727-8.525" fill="#42cea9"/></g></g></svg>