<svg xmlns="http://www.w3.org/2000/svg" xmlns:xlink="http://www.w3.org/1999/xlink" width="933.302" height="600.882" viewBox="0 0 933.302 600.882"><defs><clipPath id="a"><path d="M453.473,20.4c-33.636,8.643-59,38.707-79.5,69.312-17.751,26.488-130.188-39.791-152.138-17.2-23.337,24-112.887,22.042-143.516,17.2-28.722-4.539,12.131,89.691-14.078,103.405-11.668,6.1,1.569,15.464-5.4,27.432-.191.328-9.391,26.834-9.573,27.17C41.49,261.77,87.776,269.187,89.7,285.546c7.01,59.6-99.459,89.905-51.071,117.7C51.546,410.668-7.967,433.974.907,446.707c5.78,8.293,25.806,76.445,27.587,86.669,1.616,9.289,60.188,75.272,61.2,84.91.628,6.057,151.124-38.921,152.342-33.105,11.923,57,99.913,11.888,152.912,15.683q6.919.5,13.8.493h.405c48.066-.044,95.249-16.806,142.438-28.426,111.474-27.456,165.344-19.637,265.953-48.563,12-5.1,25.085-15.89,27.633-31.6,3.528-18.046.384-25.7-6.074-43.642-6.16-15.1-1.479-3.584-6.761-18.253-5.291-22.659-7.177-35.484,3.167-61.148,5.219-12.632,9.869-18.922,13.106-27.679A172.071,172.071,0,0,1,878.113,291c18.969-22.553,44.476-41.024,52.57-70.448a76.2,76.2,0,0,0,2.619-20.048v-.441a105.268,105.268,0,0,0-4.577-29.514c-11.248-37.811-40.967-67.771-75.53-78.722a94.8,94.8,0,0,0-26.153-4.466c-36.452-.955-71.8-9.67-105.932,4.466s-72.877-.648-105.16-19.315c-24.727-14.3-39.582,9.537-59.244-12.307C538.7,40.2,515.064,24.817,490.245,19.759a86.373,86.373,0,0,0-17.315-1.792A77.959,77.959,0,0,0,453.473,20.4" transform="translate(846.698 2534.662)" fill="#fff"/></clipPath><clipPath id="b"><rect width="811.203" height="593.374" fill="none"/></clipPath><clipPath id="c"><rect width="811.205" height="593.376" fill="none"/></clipPath><clipPath id="d"><rect width="157.11" height="106.018" fill="none"/></clipPath><clipPath id="e"><path d="M331.376,20.4c-33.636,8.643-59,38.707-79.5,69.312-17.751,26.488-34.117,53.166-56.066,75.755-23.337,24-42.067,19.317-72.7,14.477a137.338,137.338,0,0,0-84.836,14.169c-11.668,6.1-22.942,14.255-29.914,26.224-.191.328-.381.659-.563,1C.025,235.382-1.1,252.894.818,269.253c7.01,59.6,50.529,107.077,98.917,134.873,12.921,7.421,26.86,14.265,35.733,27,5.78,8.293,8.7,17.945,10.485,28.168,1.616,9.289,2.287,19.044,3.3,28.683a176.228,176.228,0,0,0,2.613,17.885c11.923,57,67.985,91.209,120.985,95q6.919.5,13.8.493h.405c48.066-.044,95.249-16.806,142.438-28.426,111.474-27.456,229.092-27.069,335.645-72.424,12-5.1,24.983-12.087,29.423-25.383,5.113-15.3-3.626-32.29-14.891-42.865a133.162,133.162,0,0,0-12.127-9.91c-20.16-14.86-43.7-27.392-46.006-52.762-.854-9.406,1.741-18.781,4.978-27.538A172.072,172.072,0,0,1,756.016,291c18.969-22.553,44.476-41.024,52.57-70.448a76.2,76.2,0,0,0,2.619-20.048v-.441a105.266,105.266,0,0,0-4.577-29.514c-11.248-37.811-40.967-67.771-75.53-78.722a94.8,94.8,0,0,0-26.153-4.466c-36.451-.955-70.525,17.826-104.654,31.963s-73.693,23.529-105.976,4.862c-24.727-14.3-40.044-42.137-59.706-63.981C416.6,40.2,392.966,24.817,368.148,19.759a86.373,86.373,0,0,0-17.315-1.792A77.959,77.959,0,0,0,331.376,20.4" transform="translate(0 -17.967)" fill="none"/></clipPath><clipPath id="g"><rect width="665.25" height="509.529" fill="none"/></clipPath><clipPath id="h"><rect width="360.35" height="203.367" fill="none"/></clipPath><clipPath id="i"><rect width="646.811" height="179.009" fill="none"/></clipPath><clipPath id="j"><rect width="148.418" height="82.658" fill="none"/></clipPath><clipPath id="k"><rect width="36.86" height="38.65" fill="none"/></clipPath><clipPath id="l"><rect width="24.264" height="25.447" fill="none"/></clipPath></defs><g transform="translate(-846.698 -2552.629)" clip-path="url(#a)"><g transform="translate(968.795 2542.645)"><g clip-path="url(#b)"><g transform="translate(0 -0.002)"><g clip-path="url(#c)"><g transform="translate(488.649 2.392)" opacity="0.32"><g clip-path="url(#d)"><path d="M1069.157,65.471c7.413-9.056,13.6-21.944,8.177-32.415-2.437-4.7-6.816-7.94-11.2-10.732C1024.105-4.473,919.668-9.9,922.331,66.55c2.732,78.46,117.745,34.445,146.826-1.079" transform="translate(-922.28 -4.299)" fill="#f2dce4"/></g></g></g></g><g transform="translate(0 9.984)"><g clip-path="url(#e)"><path d="M23.59,23.6,1015.131,0,991.54,991.1,0,1014.7Z" transform="matrix(0.708, -0.706, 0.706, 0.708, -312.603, 290.702)" fill="#44caa5"/></g></g><g transform="translate(0 -0.002)"><g clip-path="url(#c)"><g transform="translate(145.953 83.847)" opacity="0.5"><g clip-path="url(#g)"><path d="M856.042,401.112c-3.237,8.757-5.832,18.131-4.978,27.537,2.794,30.746,36.777,42.637,58.133,62.673,11.265,10.574,20,27.564,14.892,42.865-4.442,13.3-17.427,20.28-29.424,25.383-106.553,45.355-224.171,44.968-335.645,72.424-51.834,12.765-103.649,31.732-156.648,27.933s-109.061-38-120.985-95c-3.154-15.078-3.28-31.445-5.915-46.568,19.19,9.575,38.207,20.021,56.478,26.529A792.994,792.994,0,0,0,603.34,590.755a770.061,770.061,0,0,0,156.145-17.094c20.585-4.431,43.909-12.187,51.768-32.631,10.633-27.66-13.861-54.807-26.785-81.371-24.017-49.358-2.66-117.251,44.645-141.931,11.621-6.062,24.511-9.856,34.676-18.321,18.5-15.409,23.692-42.624,23.358-67.4-.372-27.733-6.616-56.492-23.648-77.709q-1.411-1.751-2.881-3.408c34.563,10.952,64.281,40.91,75.529,78.722,4.792,16.109,6.422,33.785,1.959,50-8.094,29.423-33.6,47.895-52.57,70.447a172.067,172.067,0,0,0-29.493,51.049" transform="translate(-275.473 -150.891)" fill="#4388ba"/></g></g><g transform="translate(7.798 9.988)" opacity="0.18"><g clip-path="url(#h)"><path d="M375.068,19.759c-31.252,10.4-59.554,30.187-74.828,60.109-13.553,26.547-15.949,58.915-33.232,82.957-14.519,20.194-37.617,31.6-60.755,38.725a241.62,241.62,0,0,1-68.488,10.692c-32.444.337-65.031-5.789-97.241.673-5.593,1.122-15.182,4.848-25.806,8.42.182-.336.372-.668.563-1,6.971-11.969,18.245-20.121,29.914-26.224a137.341,137.341,0,0,1,84.836-14.168c30.629,4.839,49.359,9.525,72.7-14.477,21.95-22.589,38.314-49.267,56.066-75.755C279.3,59.111,304.66,29.047,338.3,20.4a81.3,81.3,0,0,1,36.773-.645" transform="translate(-14.718 -17.969)" fill="#d3659b"/></g></g><g transform="translate(149.255 414.368)" opacity="0.79"><g clip-path="url(#i)"><path d="M927.019,798.484c-4.441,13.3-17.427,20.28-29.424,25.383-106.552,45.355-224.171,44.968-335.645,72.424C510.117,909.055,458.3,928.023,405.3,924.224s-109.061-38-120.985-95a176.369,176.369,0,0,1-2.613-17.885c11.772,18.826,29.45,33.894,48.891,43.9,28.042,14.427,59.58,19.517,90.72,22.075,95.807,7.875,191.865-6.5,286.991-20.83,34.737-5.235,70.2-10.711,101.422-27.515,22.985-12.374,42.787-30.482,60.3-50.4,9.749-11.083,19.169-23.021,29.966-32.854a133.18,133.18,0,0,1,12.127,9.91c11.265,10.574,20,27.564,14.892,42.865" transform="translate(-281.705 -745.709)" fill="#4388ba"/></g></g><g transform="translate(68.226 86.675)" opacity="0.18"><g transform="translate(0)"><g clip-path="url(#j)"><path d="M196.092,238.636c20.511-.128,41.6-5.35,57.767-18.592,13.014-10.66,19.516-32.788,22.833-49.753.548-2.8.905-5.873-.387-8.392-1.494-2.911-4.762-4.255-7.841-4.962-14.179-3.255-28.917,2.23-41.509,9.8s-24.008,17.3-37.157,23.741c-14.675,7.193-30.9,10.01-46.919,12.536-15.89,2.506-18.844,12.786-6.371,21.156,12.643,8.484,45.2,14.555,59.584,14.465" transform="translate(-128.771 -155.98)" fill="#d3659b"/></g></g></g><g transform="translate(693.677 0.002)" opacity="0.42"><g transform="translate(0)"><g clip-path="url(#k)"><path d="M1346.109,19.322c0,10.674-8.25,19.326-18.427,19.326S1309.254,30,1309.254,19.322,1317.5,0,1327.682,0s18.427,8.652,18.427,19.326" transform="translate(-1309.252 0.002)" fill="#5c5c99"/></g></g></g><g transform="translate(37.746 422.234)" opacity="0.61"><g transform="translate(0)"><g clip-path="url(#l)"><path d="M95.506,772.59c0,7.027-5.432,12.724-12.132,12.724s-12.131-5.7-12.131-12.724,5.431-12.724,12.131-12.724,12.132,5.7,12.132,12.724" transform="translate(-71.243 -759.866)" fill="#5c5c99"/></g></g></g><path d="M196.743,572.987a3.389,3.389,0,1,1-3.386-3.551,3.471,3.471,0,0,1,3.386,3.551" transform="translate(-89.32 -253.017)" fill="#5c5c99"/><path d="M616.02,900.9a3.911,3.911,0,1,1-3.906-4.1,4.005,4.005,0,0,1,3.906,4.1" transform="translate(-285.962 -398.479)" fill="#5c5c99"/></g></g></g></g></g></svg>