<svg version="1.2" baseProfile="tiny-ps" xmlns="http://www.w3.org/2000/svg" viewBox="0 0 812 594" width="812" height="594">
	<title>frame-svg</title>
	<defs>
		<clipPath clipPathUnits="userSpaceOnUse" id="cp1">
			<path d="m0 0h810.55v592.89h-810.55v-592.89z" />
		</clipPath>
		<clipPath clipPathUnits="userSpaceOnUse" id="cp2">
			<path d="m0 0h810.55v592.9h-810.55v-592.9z" />
		</clipPath>
		<clipPath clipPathUnits="userSpaceOnUse" id="cp3">
			<path d="m165.31 2.39h156.98v105.93h-156.98v-105.93z" />
		</clipPath>
		<clipPath clipPathUnits="userSpaceOnUse" id="cp4">
			<path d="m8.85 291.55h69.88v116.58h-69.88v-116.58z" />
		</clipPath>
		<clipPath clipPathUnits="userSpaceOnUse" id="cp5">
			<path d="m479.44 12.41c33.61 8.64 58.95 38.68 79.44 69.26c17.74 26.47 34.09 53.12 56.02 75.69c23.32 23.98 42.03 19.3 72.64 14.47c7.2-1.11 14.48-1.65 21.77-1.6c7.29 0.05 14.56 0.67 21.75 1.87c7.19 1.2 14.27 2.97 21.18 5.3c6.91 2.33 13.62 5.2 20.07 8.59c11.66 6.1 22.92 14.24 29.89 26.2c0.19 0.33 0.38 0.66 0.56 0.99c7.77 14.03 8.89 31.53 6.97 47.88c-7 59.56-50.49 106.99-98.84 134.76c-12.91 7.42-26.84 14.25-35.7 26.98c-5.77 8.29-8.7 17.93-10.48 28.15c-1.62 9.28-2.28 19.03-3.3 28.66c-0.14 1.5-0.3 3-0.48 4.49c-0.18 1.5-0.38 2.99-0.6 4.48c-0.22 1.49-0.45 2.98-0.71 4.46c-0.26 1.48-0.53 2.96-0.82 4.44c-11.91 56.96-67.93 91.14-120.89 94.93c-4.61 0.33-9.21 0.5-13.79 0.49h-0.4c-48.03-0.04-95.17-16.79-142.32-28.4c-111.39-27.43-228.91-27.05-335.38-72.36c-11.99-5.1-24.96-12.08-29.4-25.36c-5.11-15.29 3.62-32.26 14.88-42.83c0.96-0.88 1.93-1.75 2.92-2.61c0.99-0.85 1.98-1.7 2.99-2.52c1.01-0.83 2.03-1.64 3.07-2.43c1.03-0.8 2.08-1.58 3.14-2.34c20.14-14.85 43.67-27.37 45.97-52.72c0.85-9.4-1.74-18.77-4.97-27.52c-1.7-4.63-3.6-9.19-5.69-13.66c-2.09-4.47-4.38-8.85-6.84-13.12c-2.47-4.27-5.12-8.44-7.95-12.48c-2.83-4.04-5.83-7.97-8.99-11.75c-18.95-22.54-44.45-40.99-52.53-70.39c-0.44-1.63-0.82-3.28-1.15-4.93c-0.33-1.66-0.6-3.32-0.82-5c-0.22-1.67-0.38-3.36-0.49-5.04c-0.11-1.69-0.16-3.37-0.15-5.06l0-0.44c0.03-2.5 0.15-4.99 0.35-7.48c0.21-2.49 0.5-4.97 0.88-7.43c0.38-2.47 0.85-4.92 1.41-7.35c0.56-2.43 1.2-4.84 1.93-7.23c11.24-37.78 40.93-67.72 75.47-78.66c2.11-0.68 4.25-1.28 6.4-1.8c2.15-0.53 4.32-0.98 6.51-1.35c2.19-0.37 4.38-0.67 6.59-0.89c2.21-0.22 4.42-0.36 6.63-0.42c36.42-0.95 70.47 17.81 104.57 31.94c34.1 14.13 73.63 23.51 105.89 4.86c24.71-14.28 40.01-42.1 59.66-63.93c17.99-19.99 41.61-35.36 66.41-40.41c1.42-0.29 2.85-0.55 4.29-0.77c1.43-0.22 2.88-0.41 4.32-0.56c1.44-0.15 2.89-0.26 4.34-0.34c1.45-0.08 2.9-0.12 4.35-0.12c1.64 0 3.27 0.05 4.91 0.15c1.63 0.1 3.26 0.25 4.89 0.46c1.62 0.2 3.24 0.46 4.85 0.76c1.61 0.31 3.21 0.66 4.79 1.07" />
		</clipPath>
		<clipPath clipPathUnits="userSpaceOnUse" id="cp6">
			<path d="m0 0h810.55v592.9h-810.55v-592.9z" />
		</clipPath>
		<clipPath clipPathUnits="userSpaceOnUse" id="cp7">
			<path d="m0 83.78h664.71v509.12h-664.71v-509.12z" />
		</clipPath>
		<clipPath clipPathUnits="userSpaceOnUse" id="cp8">
			<path d="m442.7 9.98h360.06v203.2h-360.06v-203.2z" />
		</clipPath>
		<clipPath clipPathUnits="userSpaceOnUse" id="cp9">
			<path d="m15.13 414.03h646.29v178.86h-646.29v-178.86z" />
		</clipPath>
		<clipPath clipPathUnits="userSpaceOnUse" id="cp10">
			<path d="m594.08 86.6h148.3v82.59h-148.3v-82.59z" />
		</clipPath>
		<clipPath clipPathUnits="userSpaceOnUse" id="cp11">
			<path d="m80.6 0h36.83v38.62h-36.83v-38.62z" />
		</clipPath>
		<clipPath clipPathUnits="userSpaceOnUse" id="cp12">
			<path d="m748.59 421.89h24.24v25.43h-24.24v-25.43z" />
		</clipPath>
	</defs>
	<style>
		tspan { white-space:pre }
		.s0 { fill: #f2dce4 } 
		.s1 { fill: #4388ba } 
		.s2 { fill: #44caa5 } 
		.s3 { fill: #d3659b } 
		.s4 { fill: #5c5c99 } 
	</style>
	<g id="Layer">
		<g id="Layer">
			<g id="Clip-Path" clip-path="url(#cp1)">
				<g id="Layer">
					<g id="Layer">
						<g id="Clip-Path" clip-path="url(#cp2)">
							<g id="Layer">
								<g id="Layer" style="opacity: .3">
									<g id="Clip-Path" clip-path="url(#cp3)">
										<g id="Layer">
											<path id="Layer" class="s0" d="m175.54 63.51c-7.41-9.05-13.59-21.93-8.17-32.39c2.43-4.7 6.81-7.93 11.19-10.72c42-26.77 146.35-32.2 143.69 44.19c-2.73 78.4-117.65 34.42-146.71-1.08" />
										</g>
									</g>
								</g>
								<g id="Layer" style="opacity: .8">
									<g id="Clip-Path" clip-path="url(#cp4)">
										<g id="Layer">
											<path id="Layer" class="s1" d="m78.72 346.9c-0.88 24.09-15.36 47.09-36.13 57.41c-9.05 4.49-21.08 6.14-28.07-1.38c-3.23-3.47-4.75-8.34-5.35-13.15c-0.27-2.22-0.37-4.45-0.29-6.68c0.08-2.23 0.34-4.45 0.77-6.64c0.43-2.19 1.03-4.34 1.8-6.44c0.77-2.1 1.7-4.13 2.79-6.08c3.94-6.97 9.82-12.62 13.32-19.84c7.52-15.52-15.86-54.18 7.17-52.5c21.59 1.57 44.73 34.96 43.99 55.3" />
										</g>
									</g>
								</g>
							</g>
						</g>
					</g>
					<g id="Layer">
						<g id="Clip-Path" clip-path="url(#cp5)">
							<g id="Layer">
								<path id="Layer" class="s2" d="m407.12 1018.51l-684.79-716.16l682.46-717.77l684.79 716.16l-682.46 717.77z" />
							</g>
						</g>
					</g>
					<g id="Layer">
						<g id="Clip-Path" clip-path="url(#cp6)">
							<g id="Layer">
								<g id="Layer" style="opacity: .5">
									<g id="Clip-Path" clip-path="url(#cp7)">
										<g id="Layer">
											<path id="Layer" class="s1" d="m84.61 333.8c-1.7-4.63-3.6-9.19-5.69-13.66c-2.09-4.47-4.38-8.85-6.84-13.12c-2.47-4.27-5.12-8.44-7.95-12.48c-2.83-4.04-5.83-7.96-8.99-11.75c-18.95-22.53-44.44-40.99-52.53-70.39c-4.46-16.21-2.83-33.86 1.96-49.96c11.24-37.78 40.93-67.72 75.47-78.66c-0.98 1.1-1.94 2.24-2.88 3.41c-17.02 21.2-23.26 49.94-23.63 77.65c-0.33 24.75 4.86 51.94 23.34 67.34c10.16 8.46 23.04 12.25 34.65 18.31c47.27 24.66 68.61 92.5 44.61 141.82c-12.91 26.54-37.39 53.67-26.76 81.31c7.85 20.43 31.16 28.18 51.73 32.61c12.81 2.75 25.69 5.17 38.63 7.26c12.94 2.09 25.92 3.85 38.95 5.27c13.02 1.43 26.08 2.52 39.16 3.28c13.08 0.76 26.18 1.18 39.28 1.27c23.04 0.16 46.07-0.68 69.04-2.53c22.96-1.85 45.84-4.69 68.55-8.53c22.72-3.84 45.25-8.67 67.55-14.47c22.3-5.8 44.33-12.58 66.03-20.3c18.26-6.5 37.26-16.94 56.43-26.51c-2.63 15.11-2.76 31.47-5.91 46.53c-11.91 56.96-67.93 91.13-120.89 94.93c-52.96 3.8-104.73-15.16-156.52-27.91c-111.38-27.43-228.91-27.05-335.37-72.37c-11.99-5.1-24.96-12.08-29.4-25.36c-5.11-15.29 3.62-32.27 14.88-42.83c21.34-20.02 55.29-31.9 58.09-62.62c0.85-9.4-1.74-18.76-4.97-27.51" />
										</g>
									</g>
								</g>
								<g id="Layer" style="opacity: .2">
									<g id="Clip-Path" clip-path="url(#cp8)">
										<g id="Layer">
											<path id="Layer" class="s3" d="m442.7 11.77c3.02-0.65 6.08-1.12 9.15-1.42c3.08-0.3 6.17-0.42 9.26-0.37c3.09 0.05 6.17 0.28 9.24 0.69c3.06 0.41 6.1 0.99 9.1 1.74c33.61 8.64 58.95 38.68 79.44 69.26c17.74 26.47 34.09 53.12 56.02 75.69c23.32 23.98 42.04 19.3 72.64 14.47c7.2-1.11 14.48-1.65 21.77-1.6c7.29 0.05 14.56 0.67 21.75 1.87c7.19 1.2 14.27 2.97 21.18 5.3c6.91 2.33 13.62 5.2 20.07 8.59c11.66 6.09 22.92 14.24 29.89 26.2c0.19 0.33 0.38 0.66 0.56 0.99c-10.62-3.57-20.2-7.29-25.78-8.41c-32.18-6.46-64.75-0.34-97.16-0.67c-5.79-0.06-11.58-0.34-17.35-0.81c-5.77-0.48-11.53-1.17-17.25-2.06c-5.72-0.89-11.41-1.99-17.06-3.3c-5.64-1.3-11.24-2.81-16.78-4.51c-23.12-7.12-46.2-18.51-60.71-38.69c-17.27-24.02-19.66-56.36-33.21-82.89c-15.26-29.9-43.54-49.67-74.77-60.06" />
										</g>
									</g>
								</g>
								<g id="Layer" style="opacity: .8">
									<g id="Clip-Path" clip-path="url(#cp9)">
										<g id="Layer">
											<path id="Layer" class="s1" d="m16.62 466.76c-5.11-15.29 3.62-32.26 14.88-42.83c0.96-0.88 1.93-1.75 2.92-2.61c0.99-0.85 1.98-1.7 2.99-2.52c1.01-0.83 2.03-1.64 3.07-2.43c1.03-0.8 2.08-1.58 3.14-2.34c10.79 9.83 20.2 21.75 29.94 32.83c17.5 19.9 37.29 37.99 60.25 50.36c31.19 16.79 66.63 22.26 101.34 27.49c95.05 14.32 191.03 28.68 286.76 20.81c31.12-2.56 62.63-7.64 90.65-22.06c19.43-9.99 37.09-25.05 48.85-43.86c-0.14 1.5-0.3 3-0.48 4.49c-0.18 1.5-0.38 2.99-0.6 4.48c-0.22 1.49-0.45 2.98-0.71 4.46c-0.26 1.48-0.53 2.96-0.82 4.44c-11.91 56.96-67.93 91.13-120.89 94.93c-52.96 3.8-104.73-15.16-156.52-27.91c-111.38-27.43-228.91-27.05-335.37-72.37c-11.99-5.1-24.96-12.08-29.4-25.36" />
										</g>
									</g>
								</g>
								<g id="Layer" style="opacity: .2">
									<g id="Layer">
										<g id="Clip-Path" clip-path="url(#cp10)">
											<g id="Layer">
												<path id="Layer" class="s3" d="m675.11 169.19c-20.5-0.13-41.57-5.35-57.72-18.58c-13-10.65-19.5-32.76-22.81-49.71c-0.55-2.8-0.9-5.87 0.39-8.38c1.49-2.91 4.76-4.25 7.84-4.96c14.17-3.25 28.89 2.23 41.48 9.79c12.58 7.56 23.99 17.28 37.13 23.72c14.66 7.19 30.88 10 46.88 12.53c15.88 2.5 18.83 12.78 6.37 21.14c-12.63 8.48-45.16 14.54-59.54 14.45" />
											</g>
										</g>
									</g>
								</g>
								<g id="Layer" style="opacity: .4">
									<g id="Layer">
										<g id="Clip-Path" clip-path="url(#cp11)">
											<g id="Layer">
												<path id="Layer" class="s4" d="m80.61 19.31c0-10.66 8.24-19.31 18.41-19.31c10.17 0 18.41 8.64 18.41 19.31c0 10.66-8.24 19.31-18.41 19.31c-10.17 0-18.41-8.65-18.41-19.31" />
											</g>
										</g>
									</g>
								</g>
								<g id="Layer" style="opacity: .6">
									<g id="Layer">
										<g id="Clip-Path" clip-path="url(#cp12)">
											<g id="Layer">
												<path id="Layer" class="s4" d="m760.71 421.89c6.69 0 12.12 5.69 12.12 12.71c0 7.02-5.43 12.71-12.12 12.71c-6.7 0-12.12-5.69-12.12-12.71c0-7.02 5.43-12.71 12.12-12.71z" />
											</g>
										</g>
									</g>
								</g>
								<path id="Layer" class="s4" d="m703.21 319.71c-0.01-0.46 0.07-0.91 0.23-1.33c0.16-0.42 0.41-0.81 0.72-1.14c0.31-0.33 0.69-0.59 1.11-0.78c0.42-0.18 0.86-0.28 1.32-0.3c1.36 0 2.58 0.81 3.11 2.05c0.53 1.25 0.27 2.69-0.66 3.67c-0.94 0.98-2.37 1.31-3.63 0.84c-1.27-0.47-2.14-1.66-2.2-3.01" />
								<path id="Layer" class="s4" d="m480.76 502.02c-0.01-0.52 0.08-1.05 0.27-1.54c0.19-0.49 0.47-0.94 0.84-1.32c0.36-0.38 0.8-0.69 1.28-0.9c0.48-0.21 1-0.33 1.52-0.34c1.56 0 2.98 0.93 3.59 2.37c0.62 1.44 0.32 3.1-0.76 4.24c-1.08 1.13-2.73 1.51-4.19 0.97c-1.47-0.55-2.46-1.91-2.54-3.48" />
							</g>
						</g>
					</g>
				</g>
			</g>
		</g>
	</g>
</svg>