<svg xmlns="http://www.w3.org/2000/svg" xmlns:xlink="http://www.w3.org/1999/xlink" width="932.549" height="610.373" viewBox="0 0 932.549 610.373"><defs><clipPath id="a"><rect width="810.549" height="592.895" fill="none"/></clipPath><clipPath id="b"><rect width="810.55" height="592.898" fill="none"/></clipPath><clipPath id="c"><rect width="156.983" height="105.933" fill="none"/></clipPath><clipPath id="d"><rect width="69.881" height="116.582" fill="none"/></clipPath><clipPath id="e"><path d="M479.442,20.4c33.609,8.636,58.948,38.676,79.439,69.256,17.737,26.466,34.089,53.123,56.021,75.693,23.318,23.983,42.033,19.3,72.637,14.466a137.227,137.227,0,0,1,84.768,14.157c11.659,6.1,22.924,14.244,29.889,26.2.191.328.381.659.563.994,7.767,14.035,8.892,31.534,6.974,47.879-7,59.557-50.488,106.991-98.837,134.764-12.91,7.415-26.838,14.253-35.7,26.975-5.775,8.286-8.7,17.93-10.477,28.146-1.615,9.281-2.285,19.029-3.3,28.66a176.081,176.081,0,0,1-2.611,17.871c-11.914,56.955-67.931,91.136-120.887,94.927q-6.913.5-13.793.493h-.405c-48.027-.044-95.172-16.792-142.323-28.4C270.012,545.05,152.489,545.436,46.023,500.118c-11.988-5.1-24.963-12.078-29.4-25.363-5.109-15.288,3.623-32.264,14.879-42.83a133.047,133.047,0,0,1,12.118-9.9c20.144-14.848,43.666-27.37,45.969-52.719.853-9.4-1.74-18.766-4.974-27.516a171.933,171.933,0,0,0-29.47-51.007C36.191,268.247,10.7,249.79,2.617,220.39A76.14,76.14,0,0,1,0,200.358v-.44a105.181,105.181,0,0,1,4.574-29.49c11.239-37.781,40.934-67.716,75.469-78.659a94.726,94.726,0,0,1,26.132-4.463c36.422-.954,70.468,17.812,104.57,31.937s73.633,23.51,105.891,4.858c24.707-14.284,40.012-42.1,59.658-63.929C394.285,40.181,417.9,24.811,442.7,19.758A86.3,86.3,0,0,1,460,17.967,77.9,77.9,0,0,1,479.442,20.4" transform="translate(0 -17.967)" fill="none"/></clipPath><clipPath id="g"><rect width="664.713" height="509.118" fill="none"/></clipPath><clipPath id="h"><rect width="360.059" height="203.203" fill="none"/></clipPath><clipPath id="i"><rect width="646.289" height="178.864" fill="none"/></clipPath><clipPath id="j"><rect width="148.298" height="82.591" fill="none"/></clipPath><clipPath id="k"><rect width="36.83" height="38.619" fill="none"/></clipPath><clipPath id="l"><rect width="24.244" height="25.427" fill="none"/></clipPath><clipPath id="m"><path d="M479.442,20.4c33.609,8.636,58.948,38.676,79.439,69.256C576.618,116.124,688.964,49.9,710.9,72.469c23.318,23.983,112.8,22.024,143.4,17.189,28.7-4.536-12.121,89.619,14.067,103.322,11.659,6.1-1.568,15.451,5.4,27.41.191.328,9.384,26.812,9.565,27.148,7.767,14.035-38.482,21.446-40.4,37.792-7,59.557,99.379,89.833,51.03,117.607-12.911,7.415,46.554,30.7,37.688,43.424-5.775,8.286-25.785,76.384-27.565,86.6-1.615,9.281-60.139,75.211-61.153,84.842-.628,6.052-151-38.89-152.219-33.078-11.914,56.955-99.832,11.879-152.789,15.67q-6.913.5-13.793.493h-.405c-48.027-.044-95.172-16.792-142.323-28.4C270.012,545.05,152.489,545.436,46.023,500.118c-11.988-5.1-24.963-12.078-29.4-25.363-5.109-15.288,3.623-32.264,14.879-42.83a133.047,133.047,0,0,1,12.118-9.9c20.144-14.848,43.666-27.37,45.969-52.719.853-9.4-1.74-18.766-4.974-27.516a171.933,171.933,0,0,0-29.47-51.007C36.191,268.247,10.7,249.79,2.617,220.39A76.14,76.14,0,0,1,0,200.358v-.44a105.181,105.181,0,0,1,4.574-29.49c11.239-37.781,40.934-67.716,75.469-78.659a94.726,94.726,0,0,1,26.132-4.463c36.422-.954,71.745-9.662,105.847,4.463s72.818-.648,105.075-19.3c24.707-14.284,39.55,9.529,59.2-12.3C394.285,40.181,417.9,24.811,442.7,19.758A86.3,86.3,0,0,1,460,17.967,77.9,77.9,0,0,1,479.442,20.4" transform="translate(0 -17.967)" fill="#fff"/></clipPath></defs><g transform="translate(-140 -525.343)"><g transform="translate(140.002 525.343)"><g clip-path="url(#a)"><g transform="translate(-0.002 -0.002)"><g clip-path="url(#b)"><g transform="translate(165.312 2.39)" opacity="0.32"><g clip-path="url(#c)"><path d="M932.508,65.421c-7.407-9.048-13.59-21.926-8.17-32.389,2.435-4.7,6.811-7.934,11.186-10.723,42-26.775,146.352-32.2,143.692,44.191-2.73,78.4-117.65,34.417-146.708-1.078" transform="translate(-922.283 -4.299)" fill="#f2dce4"/></g></g><g transform="translate(8.853 291.549)" opacity="0.79"><g clip-path="url(#d)"><path d="M1452.213,580.458c-.879,24.088-15.355,47.093-36.127,57.412-9.048,4.494-21.083,6.137-28.07-1.383-3.227-3.473-4.753-8.341-5.35-13.15a42.471,42.471,0,0,1,5.069-25.839c3.938-6.968,9.823-12.619,13.32-19.841,7.517-15.525-15.859-54.177,7.166-52.5,21.591,1.57,44.733,34.964,43.992,55.3" transform="translate(-1382.35 -525.103)" fill="#4388ba"/></g></g></g></g><g transform="translate(-0.002 9.976)"><g clip-path="url(#e)"><path d="M23.571,990.3l990.741,23.585-23.571-990.3L0,0Z" transform="matrix(-0.708, -0.706, 0.706, -0.708, 407.12, 1008.535)" fill="#44caa5"/></g></g><g transform="translate(-0.002 -0.002)"><g clip-path="url(#b)"><g transform="translate(0.002 83.78)" opacity="0.5"><g clip-path="url(#g)"><path d="M360.087,400.91c3.234,8.75,5.827,18.116,4.974,27.515-2.792,30.721-36.747,42.6-58.086,62.622-11.256,10.565-19.988,27.542-14.88,42.83,4.438,13.285,17.413,20.264,29.4,25.362,106.467,45.319,223.99,44.932,335.374,72.366,51.792,12.754,103.565,31.706,156.522,27.91s108.973-37.971,120.887-94.927c3.151-15.065,3.278-31.42,5.91-46.531-19.175,9.567-38.176,20.005-56.432,26.507A792.355,792.355,0,0,1,612.585,590.4,769.445,769.445,0,0,1,456.566,573.32c-20.568-4.427-43.873-12.178-51.727-32.605-10.624-27.638,13.85-54.762,26.764-81.306,24-49.318,2.658-117.157-44.609-141.816-11.611-6.057-24.491-9.848-34.648-18.307-18.482-15.4-23.673-42.59-23.339-67.344.372-27.71,6.611-56.447,23.629-77.646q1.409-1.75,2.879-3.405c-34.535,10.943-64.229,40.877-75.468,78.659-4.789,16.1-6.416,33.758-1.957,49.963,8.087,29.4,33.574,47.856,52.527,70.39a171.929,171.929,0,0,1,29.47,51.007" transform="translate(-275.475 -150.891)" fill="#4388ba"/></g></g><g transform="translate(442.699 9.979)" opacity="0.18"><g clip-path="url(#h)"><path d="M14.718,19.758C45.945,30.151,74.224,49.92,89.485,79.818c13.542,26.526,15.936,58.867,33.206,82.89C137.2,182.886,160.278,194.283,183.4,201.4a241.425,241.425,0,0,0,68.433,10.684c32.418.336,64.979-5.784,97.163.672,5.589,1.122,15.17,4.844,25.785,8.413-.182-.336-.372-.667-.563-.994-6.966-11.959-18.23-20.105-29.889-26.2a137.231,137.231,0,0,0-84.768-14.157c-30.6,4.835-49.319,9.517-72.637-14.466-21.932-22.571-38.284-49.227-56.021-75.693-20.49-30.58-45.83-60.62-79.438-69.256a81.231,81.231,0,0,0-36.743-.645" transform="translate(-14.718 -17.969)" fill="#d3659b"/></g></g><g transform="translate(15.127 414.033)" opacity="0.79"><g clip-path="url(#i)"><path d="M283.2,798.441c4.437,13.285,17.413,20.264,29.4,25.363,106.466,45.318,223.99,44.932,335.374,72.365,51.791,12.754,103.565,31.706,156.521,27.91s108.973-37.971,120.887-94.927a176.194,176.194,0,0,0,2.61-17.871c-11.763,18.811-29.426,33.867-48.852,43.861-28.019,14.416-59.532,19.5-90.647,22.057-95.729,7.869-191.71-6.493-286.76-20.813-34.708-5.231-70.148-10.7-101.34-27.493-22.967-12.364-42.752-30.457-60.255-50.358-9.741-11.074-19.153-23-29.942-32.827a133.059,133.059,0,0,0-12.117,9.9c-11.256,10.566-19.989,27.542-14.88,42.83" transform="translate(-281.704 -745.709)" fill="#4388ba"/></g></g><g transform="translate(594.081 86.605)" opacity="0.18"><g transform="translate(0)"><g clip-path="url(#j)"><path d="M209.8,238.57c-20.495-.128-41.569-5.346-57.72-18.577-13-10.652-19.5-32.761-22.815-49.713-.547-2.8-.9-5.868.387-8.385,1.493-2.909,4.758-4.251,7.835-4.958,14.167-3.252,28.894,2.228,41.475,9.793s23.989,17.282,37.127,23.722c14.663,7.187,30.876,10,46.881,12.526,15.877,2.5,18.829,12.776,6.366,21.139-12.633,8.478-45.162,14.543-59.536,14.453" transform="translate(-128.772 -155.98)" fill="#d3659b"/></g></g></g><g transform="translate(80.603 0.002)" opacity="0.42"><g transform="translate(0)"><g clip-path="url(#k)"><path d="M1309.254,19.306c0,10.665,8.244,19.31,18.412,19.31s18.413-8.645,18.413-19.31S1337.836,0,1327.667,0s-18.412,8.645-18.412,19.31" transform="translate(-1309.251 0.002)" fill="#5c5c99"/></g></g></g><g transform="translate(748.59 421.894)" opacity="0.61"><g transform="translate(0)"><g clip-path="url(#l)"><path d="M71.243,772.579c0,7.021,5.427,12.713,12.122,12.713s12.122-5.692,12.122-12.713-5.427-12.713-12.122-12.713-12.122,5.692-12.122,12.713" transform="translate(-71.243 -759.866)" fill="#5c5c99"/></g></g></g><path d="M189.972,572.984a3.387,3.387,0,1,0,3.383-3.548,3.468,3.468,0,0,0-3.383,3.548" transform="translate(513.241 -253.272)" fill="#5c5c99"/><path d="M608.207,900.9a3.908,3.908,0,1,0,3.9-4.094,4,4,0,0,0-3.9,4.094" transform="translate(-127.448 -398.881)" fill="#5c5c99"/></g></g></g></g></g></svg>