<svg version="1.2" baseProfile="tiny-ps" xmlns="http://www.w3.org/2000/svg" viewBox="0 0 813 584" width="813" height="584">
	<title>frame2-svg</title>
	<defs>
		<clipPath clipPathUnits="userSpaceOnUse" id="cp1">
			<path d="m332.47 2.43c1.59-0.41 3.19-0.76 4.8-1.07c1.61-0.31 3.23-0.56 4.85-0.76c1.63-0.2 3.26-0.36 4.89-0.46c1.64-0.1 3.27-0.15 4.91-0.15c1.45 0 2.91 0.04 4.36 0.12c1.45 0.08 2.9 0.19 4.35 0.34c1.45 0.15 2.89 0.34 4.32 0.56c1.44 0.22 2.87 0.48 4.29 0.78c24.82 5.06 48.46 20.44 66.46 40.45c19.66 21.84 34.52-1.99 59.24 12.31c32.28 18.67 71.03 33.45 105.16 19.31c34.13-14.14 69.48-5.42 105.93-4.47c2.22 0.06 4.43 0.21 6.64 0.42c2.21 0.22 4.41 0.52 6.59 0.89c2.19 0.37 4.36 0.82 6.52 1.35c2.16 0.53 4.29 1.13 6.4 1.8c34.56 10.95 64.28 40.91 75.53 78.72c0.73 2.39 1.37 4.8 1.93 7.24c0.56 2.43 1.03 4.89 1.41 7.36c0.38 2.47 0.68 4.95 0.88 7.44c0.21 2.49 0.32 4.98 0.35 7.48v0.44c0.01 1.69-0.05 3.38-0.15 5.07c-0.11 1.69-0.27 3.37-0.49 5.04c-0.22 1.68-0.49 3.34-0.82 5c-0.33 1.66-0.71 3.3-1.15 4.94c-8.09 29.42-33.6 47.89-52.57 70.45c-3.17 3.79-6.17 7.71-9 11.76c-2.83 4.05-5.48 8.21-7.95 12.49c-2.47 4.28-4.76 8.66-6.85 13.13c-2.09 4.47-3.99 9.03-5.7 13.67c-3.24 8.76-7.89 15.05-13.11 27.68c-10.34 25.66-8.46 38.49-3.17 61.15c5.28 14.67 0.6 3.15 6.76 18.25c6.46 17.94 9.6 25.6 6.07 43.64c-2.55 15.71-15.63 26.5-27.63 31.6c-100.61 28.93-154.48 21.11-265.95 48.56c-47.19 11.62-94.37 28.38-142.44 28.43h-0.4c-4.59 0-9.19-0.16-13.8-0.49c-53-3.79-140.99 41.32-152.91-15.68c-1.22-5.82-151.71 39.16-152.34 33.11c-1.01-9.64-59.58-75.62-61.2-84.91c-1.78-10.22-21.81-78.38-27.59-86.67c-8.87-12.73 50.64-36.04 37.72-43.46c-48.39-27.79 58.08-58.1 51.07-117.7c-1.92-16.36-48.21-23.78-40.43-37.83c0.18-0.34 9.38-26.84 9.57-27.17c6.97-11.97-6.27-21.33 5.4-27.43c26.21-13.71-14.64-107.94 14.08-103.41c30.63 4.84 120.18 6.8 143.52-17.2c21.95-22.59 134.39 43.69 152.14 17.2c20.5-30.6 45.86-60.67 79.5-69.31" />
		</clipPath>
		<clipPath clipPathUnits="userSpaceOnUse" id="cp2">
			<path d="m1.1-9.98h811.2v593.37h-811.2v-593.37z" />
		</clipPath>
		<clipPath clipPathUnits="userSpaceOnUse" id="cp3">
			<path d="m1.1-9.99h811.21v593.38h-811.21v-593.38z" />
		</clipPath>
		<clipPath clipPathUnits="userSpaceOnUse" id="cp4">
			<path d="m489.75-7.59h157.11v106.02h-157.11v-106.02z" />
		</clipPath>
		<clipPath clipPathUnits="userSpaceOnUse" id="cp5">
			<path d="m332.47 2.43c1.59-0.41 3.19-0.76 4.8-1.07c1.61-0.31 3.23-0.56 4.85-0.76c1.63-0.2 3.26-0.36 4.89-0.46c1.64-0.1 3.27-0.15 4.91-0.15c1.45 0 2.91 0.04 4.36 0.12c1.45 0.08 2.9 0.19 4.35 0.34c1.45 0.15 2.89 0.34 4.32 0.56c1.44 0.22 2.87 0.48 4.29 0.78c24.82 5.06 48.45 20.44 66.46 40.45c19.66 21.84 34.98 49.68 59.71 63.98c32.28 18.67 71.85 9.28 105.98-4.86c34.13-14.14 68.2-32.92 104.65-31.96c2.22 0.06 4.43 0.21 6.64 0.42c2.21 0.22 4.41 0.52 6.59 0.89c2.19 0.37 4.36 0.82 6.52 1.35c2.16 0.53 4.29 1.13 6.4 1.8c34.56 10.95 64.28 40.91 75.53 78.72c0.73 2.39 1.37 4.8 1.93 7.24c0.56 2.43 1.03 4.89 1.41 7.36c0.38 2.47 0.68 4.95 0.88 7.44c0.21 2.49 0.32 4.98 0.35 7.48l0 0.44c0.01 1.69-0.05 3.38-0.15 5.07c-0.11 1.69-0.27 3.37-0.49 5.04c-0.22 1.68-0.49 3.34-0.82 5c-0.33 1.66-0.71 3.3-1.15 4.94c-8.09 29.42-33.6 47.89-52.57 70.45c-3.17 3.79-6.17 7.71-9 11.76c-2.83 4.05-5.48 8.21-7.95 12.49c-2.47 4.28-4.76 8.66-6.85 13.13c-2.09 4.47-3.99 9.03-5.7 13.67c-3.24 8.76-5.83 18.13-4.98 27.54c2.31 25.37 25.85 37.9 46.01 52.76c1.06 0.77 2.1 1.55 3.14 2.34c1.04 0.8 2.06 1.61 3.07 2.43c1.01 0.83 2.01 1.67 3 2.52c0.99 0.86 1.96 1.73 2.92 2.61c11.26 10.57 20 27.56 14.89 42.87c-4.44 13.3-17.42 20.28-29.42 25.38c-106.55 45.36-224.17 44.97-335.64 72.42c-47.19 11.62-94.37 28.38-142.44 28.43h-0.4c-4.59 0-9.19-0.16-13.8-0.49c-53-3.79-109.06-38-120.99-95c-0.29-1.48-0.57-2.96-0.83-4.44c-0.26-1.49-0.49-2.97-0.71-4.46c-0.22-1.49-0.42-2.98-0.6-4.48c-0.18-1.5-0.34-2.99-0.48-4.49c-1.01-9.64-1.68-19.39-3.3-28.68c-1.78-10.22-4.7-19.88-10.49-28.17c-8.87-12.74-22.81-19.58-35.73-27c-48.39-27.8-91.91-75.27-98.92-134.87c-1.92-16.36-0.79-33.87 6.98-47.92c0.18-0.34 0.37-0.67 0.56-1c6.97-11.97 18.25-20.12 29.91-26.22c6.46-3.39 13.17-6.27 20.09-8.6c6.91-2.33 14-4.1 21.19-5.3c7.19-1.2 14.47-1.83 21.77-1.87c7.29-0.05 14.58 0.49 21.79 1.6c30.63 4.84 49.36 9.52 72.7-14.48c21.95-22.59 38.32-49.27 56.07-75.75c20.5-30.6 45.86-60.67 79.5-69.31" />
		</clipPath>
		<clipPath clipPathUnits="userSpaceOnUse" id="cp6">
			<path d="m1.1-9.99h811.21v593.38h-811.21v-593.38z" />
		</clipPath>
		<clipPath clipPathUnits="userSpaceOnUse" id="cp7">
			<path d="m147.05 73.86h665.25v509.53h-665.25v-509.53z" />
		</clipPath>
		<clipPath clipPathUnits="userSpaceOnUse" id="cp8">
			<path d="m8.89 0h360.35v203.37h-360.35v-203.37z" />
		</clipPath>
		<clipPath clipPathUnits="userSpaceOnUse" id="cp9">
			<path d="m150.35 404.38h646.81v179.01h-646.81v-179.01z" />
		</clipPath>
		<clipPath clipPathUnits="userSpaceOnUse" id="cp10">
			<path d="m69.32 76.69h148.42v82.66h-148.42v-82.66z" />
		</clipPath>
		<clipPath clipPathUnits="userSpaceOnUse" id="cp11">
			<path d="m694.77-9.98h36.86v38.65h-36.86v-38.65z" />
		</clipPath>
		<clipPath clipPathUnits="userSpaceOnUse" id="cp12">
			<path d="m38.84 412.25h24.26v25.45h-24.26v-25.45z" />
		</clipPath>
	</defs>
	<style>
		tspan { white-space:pre }
		.s0 { fill: #f2dce4 } 
		.s1 { fill: #44caa5 } 
		.s2 { fill: #4388ba } 
		.s3 { fill: #d3659b } 
		.s4 { fill: #5c5c99 } 
	</style>
	<g id="Clip-Path" clip-path="url(#cp1)">
		<g id="Layer">
			<g id="Layer">
				<g id="Clip-Path" clip-path="url(#cp2)">
					<g id="Layer">
						<g id="Layer">
							<g id="Clip-Path" clip-path="url(#cp3)">
								<g id="Layer">
									<g id="Layer" style="opacity: .3">
										<g id="Clip-Path" clip-path="url(#cp4)">
											<g id="Layer">
												<path id="Layer" class="s0" d="m489.8 54.66c-2.66-76.45 101.77-71.02 143.8-44.23c4.38 2.79 8.76 6.03 11.2 10.73c5.42 10.47-0.76 23.36-8.18 32.41c-29.08 35.52-144.09 79.54-146.83 1.08z" />
											</g>
										</g>
									</g>
								</g>
							</g>
						</g>
						<g id="Layer">
							<g id="Clip-Path" clip-path="url(#cp5)">
								<g id="Layer">
									<path id="Layer" class="s1" d="m-278.14 290.76l685.35-716.74l683.01 718.35l-685.35 716.74l-683.01-718.35z" />
								</g>
							</g>
						</g>
						<g id="Layer">
							<g id="Clip-Path" clip-path="url(#cp6)">
								<g id="Layer">
									<g id="Layer" style="opacity: .5">
										<g id="Clip-Path" clip-path="url(#cp7)">
											<g id="Layer">
												<path id="Layer" class="s2" d="m727.62 324.08c-3.24 8.76-5.83 18.13-4.98 27.54c2.79 30.75 36.78 42.64 58.13 62.67c11.26 10.57 20 27.56 14.89 42.87c-4.44 13.3-17.43 20.28-29.42 25.38c-106.55 45.36-224.17 44.97-335.64 72.42c-51.83 12.76-103.65 31.73-156.65 27.93c-53-3.8-109.06-38-120.99-95c-3.15-15.08-3.28-31.45-5.92-46.57c19.19 9.58 38.21 20.02 56.48 26.53c21.72 7.73 43.77 14.51 66.09 20.32c22.31 5.81 44.87 10.64 67.6 14.48c22.73 3.84 45.63 6.69 68.61 8.54c22.98 1.85 46.04 2.69 69.09 2.53c13.11-0.09 26.22-0.52 39.31-1.27c13.09-0.76 26.16-1.85 39.2-3.28c13.04-1.43 26.03-3.19 38.98-5.28c12.95-2.09 25.84-4.51 38.66-7.26c20.59-4.43 43.91-12.19 51.77-32.63c10.63-27.66-13.86-54.81-26.78-81.37c-24.02-49.36-2.66-117.25 44.64-141.93c11.62-6.06 24.51-9.86 34.68-18.32c18.5-15.41 23.69-42.62 23.36-67.4c-0.37-27.73-6.62-56.49-23.65-77.71c-0.94-1.17-1.9-2.3-2.88-3.41c34.56 10.95 64.28 40.91 75.53 78.72c4.79 16.11 6.42 33.79 1.96 50c-8.09 29.42-33.6 47.89-52.57 70.45c-3.17 3.79-6.17 7.71-9 11.76c-2.83 4.05-5.48 8.22-7.95 12.49c-2.47 4.28-4.76 8.66-6.85 13.13c-2.09 4.47-3.99 9.03-5.69 13.67" />
											</g>
										</g>
									</g>
									<g id="Layer" style="opacity: .2">
										<g id="Clip-Path" clip-path="url(#cp8)">
											<g id="Layer">
												<path id="Layer" class="s3" d="m369.24 1.79c-31.25 10.4-59.55 30.19-74.83 60.11c-13.55 26.55-15.95 58.91-33.23 82.96c-14.52 20.19-37.62 31.6-60.75 38.72c-5.54 1.71-11.14 3.21-16.79 4.52c-5.65 1.3-11.34 2.4-17.07 3.3c-5.73 0.89-11.49 1.58-17.26 2.06c-5.78 0.48-11.57 0.75-17.37 0.82c-32.44 0.34-65.03-5.79-97.24 0.67c-5.59 1.12-15.18 4.85-25.81 8.42c0.18-0.34 0.37-0.67 0.56-1c6.97-11.97 18.25-20.12 29.91-26.22c6.46-3.39 13.17-6.27 20.09-8.6c6.91-2.33 14-4.1 21.19-5.3c7.19-1.2 14.47-1.83 21.77-1.87c7.29-0.05 14.58 0.49 21.79 1.6c30.63 4.84 49.36 9.52 72.7-14.48c21.95-22.59 38.31-49.27 56.07-75.75c20.5-30.6 45.86-60.66 79.5-69.31c3-0.75 6.04-1.33 9.11-1.74c3.07-0.41 6.15-0.64 9.24-0.69c3.09-0.05 6.18 0.07 9.26 0.37c3.08 0.3 6.14 0.77 9.16 1.42" />
											</g>
										</g>
									</g>
									<g id="Layer" style="opacity: .8">
										<g id="Clip-Path" clip-path="url(#cp9)">
											<g id="Layer">
												<path id="Layer" class="s2" d="m795.67 457.16c-4.44 13.3-17.43 20.28-29.42 25.38c-106.55 45.36-224.17 44.97-335.64 72.42c-51.83 12.76-103.65 31.73-156.65 27.93c-53-3.8-109.06-38-120.99-95c-0.29-1.48-0.57-2.96-0.82-4.44c-0.26-1.49-0.49-2.97-0.71-4.46c-0.22-1.49-0.42-2.98-0.6-4.48c-0.18-1.5-0.34-2.99-0.48-4.49c11.77 18.83 29.45 33.89 48.89 43.9c28.04 14.43 59.58 19.52 90.72 22.08c95.81 7.88 191.87-6.5 286.99-20.83c34.74-5.24 70.2-10.71 101.42-27.51c22.98-12.37 42.79-30.48 60.3-50.4c9.75-11.08 19.17-23.02 29.97-32.85c1.06 0.77 2.1 1.55 3.14 2.34c1.04 0.8 2.06 1.61 3.07 2.43c1.01 0.83 2.01 1.67 3 2.52c0.99 0.86 1.96 1.73 2.92 2.61c11.27 10.57 20 27.56 14.89 42.87" />
											</g>
										</g>
									</g>
									<g id="Layer" style="opacity: .2">
										<g id="Layer">
											<g id="Clip-Path" clip-path="url(#cp10)">
												<g id="Layer">
													<path id="Layer" class="s3" d="m136.64 159.34c-14.38 0.09-46.94-5.98-59.58-14.47c-12.47-8.37-9.52-18.65 6.37-21.16c16.02-2.53 32.24-5.34 46.92-12.54c13.15-6.44 24.56-16.17 37.16-23.74c12.59-7.57 27.33-13.06 41.51-9.8c3.08 0.71 6.35 2.05 7.84 4.96c1.29 2.52 0.94 5.59 0.39 8.39c-3.32 16.96-9.82 39.09-22.83 49.75c-16.17 13.24-37.26 18.46-57.77 18.59" />
												</g>
											</g>
										</g>
									</g>
									<g id="Layer" style="opacity: .4">
										<g id="Layer">
											<g id="Clip-Path" clip-path="url(#cp11)">
												<g id="Layer">
													<path id="Layer" class="s4" d="m731.63 9.34c0 10.67-8.25 19.33-18.43 19.33c-10.18 0-18.43-8.65-18.43-19.33c0-10.68 8.25-19.32 18.43-19.32c10.18 0 18.43 8.65 18.43 19.33" />
												</g>
											</g>
										</g>
									</g>
									<g id="Layer" style="opacity: .6">
										<g id="Layer">
											<g id="Clip-Path" clip-path="url(#cp12)">
												<g id="Layer">
													<path id="Layer" class="s4" d="m63.11 424.97c0 7.03-5.43 12.72-12.13 12.72c-6.7 0-12.13-5.7-12.13-12.72c0-7.02 5.43-12.72 12.13-12.72c6.7 0 12.13 5.7 12.13 12.72z" />
												</g>
											</g>
										</g>
									</g>
									<path id="Layer" class="s4" d="m108.52 309.98c-0.06 1.35-0.93 2.54-2.2 3.01c-1.27 0.47-2.7 0.14-3.64-0.84c-0.94-0.98-1.2-2.43-0.66-3.67c0.53-1.25 1.76-2.06 3.11-2.06c0.46 0.01 0.9 0.11 1.32 0.3c0.42 0.18 0.79 0.45 1.11 0.78c0.31 0.33 0.56 0.72 0.73 1.14c0.16 0.42 0.24 0.88 0.23 1.33" />
									<path id="Layer" class="s4" d="m331.15 492.44c-0.08 1.56-1.08 2.93-2.54 3.48c-1.47 0.55-3.12 0.17-4.2-0.97c-1.08-1.13-1.38-2.8-0.76-4.24c0.62-1.44 2.03-2.37 3.6-2.37c0.53 0.01 1.04 0.13 1.52 0.34c0.48 0.21 0.91 0.52 1.28 0.9c0.36 0.38 0.65 0.83 0.84 1.32c0.19 0.49 0.28 1.01 0.27 1.54" />
								</g>
							</g>
						</g>
					</g>
				</g>
			</g>
		</g>
	</g>
</svg>