<svg xmlns="http://www.w3.org/2000/svg" xmlns:xlink="http://www.w3.org/1999/xlink" width="160.967" height="277.221" viewBox="0 0 160.967 277.221"><defs><clipPath id="a"><rect width="160.967" height="277.221" fill="none"/></clipPath><clipPath id="c"><rect width="145.363" height="17.134" fill="none"/></clipPath><clipPath id="d"><rect width="12.215" height="91.97" fill="none"/></clipPath><clipPath id="e"><rect width="16.247" height="92.141" fill="none"/></clipPath><clipPath id="f"><rect width="39.686" height="65.185" fill="none"/></clipPath><clipPath id="g"><rect width="32.783" height="68.465" fill="none"/></clipPath><clipPath id="h"><rect width="29.82" height="29.03" fill="none"/></clipPath><clipPath id="i"><rect width="79.313" height="119.536" fill="none"/></clipPath></defs><g clip-path="url(#a)"><g clip-path="url(#a)"><path d="M235.668,132.5c-.007,0,5.467-5.9,5.46-5.9a17.865,17.865,0,0,0-12.219,7.108c-5.3,6.949-11.035,36.843-11.035,36.843s2.441,17.008,12.863,25.237c2.743-2.56,4.3-8.5,4.3-8.5s-8.505-14.659-8.505-18.44c0-2.173,5.123-19.411,5.123-19.411s4.142-16.895,4.015-16.937" transform="translate(-177.596 -69.986)" fill="#f0a974"/><g transform="translate(0 260.087)" opacity="0.2"><g clip-path="url(#c)"><path d="M180.255,590.15c0,4.731-32.541,8.567-72.682,8.567s-72.681-3.836-72.681-8.567,32.54-8.567,72.681-8.567,72.682,3.836,72.682,8.567" transform="translate(-34.892 -581.583)" fill="#47466a"/></g></g><path d="M207.22,348.738q-.439,21.587-2.56,43.088c-1.39,14.062-4.341,27.352-2.176,41.314a16.749,16.749,0,0,1-10.7.743,3.375,3.375,0,0,1-1.613-.794,3.7,3.7,0,0,1-.742-2.505c-.311-8.433,1.075-16.819,1.778-25.227,1.576-18.787-.26-37.7-3.175-56.327-.98-6.25-2.081-12.628-.98-18.86,5.478-2.085,10.8-3.01,16.457-1.489a5.228,5.228,0,0,1,3.244,1.924,5.678,5.678,0,0,1,.574,2.988q.055,7.57-.1,15.144" transform="translate(-129.812 -181.277)" fill="#e4895b"/><g transform="translate(65.193 161.152)" opacity="0.53"><g transform="translate(0)"><g clip-path="url(#d)"><path d="M196.5,409.751c-1.39,14.061-4.341,27.351-2.176,41.315a16.489,16.489,0,0,1-5.391,1.258,164.45,164.45,0,0,1,.468-22.3c.42-3.833,1.1-7.64,1.313-11.49.391-7.011-.75-14-1.605-20.97q-1.355-11.185-1.752-22.458c-.1-2.765-1.185-7.976.135-10.478.772-1.463,4.638-4.294,6.177-4.268a3.1,3.1,0,0,1,2.158,1.452,35.306,35.306,0,0,1,3.233,4.857q-.439,21.586-2.56,43.088" transform="translate(-186.848 -360.354)" fill="#97512d"/></g></g></g><path d="M161.158,560.961a33.912,33.912,0,0,0,9.463,2.927c4.206.65,8.859.634,12.126,3.361,1.139.951,2.071,2.533,1.431,3.871-.507,1.06-1.765,1.49-2.9,1.79-4.266,1.125-8.5,2.467-12.846,1.687a153.639,153.639,0,0,0-16.85-2.073c-1.415-.1-2.977-.236-3.95-1.268a5.073,5.073,0,0,1-.907-3.951,23.575,23.575,0,0,1,1.923-7.578,63.357,63.357,0,0,0,12.51,1.233" transform="translate(-89.016 -309.415)" fill="#0a0b09"/><path d="M184.31,442.712a2.437,2.437,0,0,1-.991.461,9.735,9.735,0,0,1-5.943-.267c-.826-.307-1.613-.731-2.428-1.057a7.216,7.216,0,0,0-1.338-.424c-1.327-.267-2.147-1.624-2.743-.41-2.406-17.459.713-34.381-1.565-51.858q-2.579-19.721-5.15-39.449-.614-4.707-1.228-9.421c-.373-2.856-.56-6.239,1.638-8.1a7.811,7.811,0,0,1,4.487-1.444,35.5,35.5,0,0,1,10.3.644,2.394,2.394,0,0,1,1.236.534,2.509,2.509,0,0,1,.534,1.488c.446,3.547.567,8.543.7,12.12q1.574,41.669-.538,83.371c-.194,3.774,1.086,6.839,2.808,10.207.593,1.163,1.207,2.75.223,3.61" transform="translate(-96.618 -182.762)" fill="#f0a974"/><g transform="translate(67.534 166.945)" opacity="0.38"><g transform="translate(0)"><g clip-path="url(#e)"><path d="M188.423,462.008a5.023,5.023,0,0,1-1.755,1.584q-1.591,1.01-3.273,1.858a7.194,7.194,0,0,0-1.338-.424c-1.328-.267-2.147-1.624-2.743-.41-2.406-17.459.713-34.381-1.565-51.858q-2.578-19.721-5.149-39.449c1.671.022,3.361,1.009,4.912,2.933,5.818,7.219,6.707,24.36,6.777,33.255.047,6.071-.735,12.127-.691,18.2.073,10.255,2.495,20.33,4.9,30.3.322,1.335.622,2.827-.073,4.008" transform="translate(-172.598 -373.308)" fill="#e4895b"/></g></g></g><path d="M114.839,567.151a23.473,23.473,0,0,0,12.108-1.062c6.727,5.17,15.251,6.118,23.09,9.361a1.639,1.639,0,0,1,.838.585c.445.75-.441,1.585-1.23,1.958-4.41,2.084-9.491,2.136-14.357,1.8s-9.774-1.026-14.594-.282c-1.669.258-3.57.631-4.894-.417a4.5,4.5,0,0,1-1.211-1.72c-1.329-2.922-.881-7.218.251-10.222" transform="translate(-40.907 -312.931)" fill="#171726"/><path d="M199.411,316.483c-.121,1.05-.26,2.1-.41,3.152-18.618,6.583-26.96,3.657-33.3,5.12-.487-16.091-2.926-24.382-4.144-30.72s-4.633-19.5,2.926-32.428a39.824,39.824,0,0,1,8.39-2.037,120.141,120.141,0,0,1,22.33-.643s7.724,27.545,4.21,57.556" transform="translate(-110.79 -142.995)" fill="#1a1a29"/><g transform="translate(48.935 116.575)" opacity="0.67"><g clip-path="url(#f)"><path d="M201.461,317.588c-.121,1.05-.26,2.1-.41,3.152-18.618,6.583-26.96,3.657-33.3,5.12-.487-16.091-2.926-24.382-4.144-30.72s-4.633-19.5,2.926-32.428a39.826,39.826,0,0,1,8.39-2.037c-3.69,16.271-4.974,28.866-1.273,45.736.5,2.282,1.057,4.655,2.567,6.437,4.294,5.061,12.39,2.227,19,2.838a16.5,16.5,0,0,1,6.247,1.9" transform="translate(-161.775 -260.676)" fill="#383656"/></g></g><path d="M178.085,31.9s2.194,32.183-20.48,32.183c-5.73,0-8.9-8.9-8.9-8.9l7.436-21.821Z" transform="translate(-83.678 -17.631)" fill="#f0a974"/><path d="M200.085,174.638c-.194,1.547-.4,2.8-.6,3.686-4.633,4.389-30.72,2.681-30.72,2.681,4.143-4.388-1.463-48.278-1.463-48.278s13.21-20.239,22.63-19.855a6.261,6.261,0,0,1,4.89,2.794c7.837,10.488,6.937,45.641,5.263,58.971" transform="translate(-115.074 -62.392)" fill="#f3f4f6"/><g transform="translate(52.229 50.475)" opacity="0.6"><g clip-path="url(#g)"><path d="M202.628,174.638c-.194,1.547-.4,2.8-.6,3.686-4.633,4.389-30.72,2.681-30.72,2.681,4.143-4.388-1.463-48.278-1.463-48.278s13.21-20.239,22.63-19.855c.362,7.727-5.519,21.387-6.956,27.377-.892,3.708-1.774,7.661-.548,11.275.907,2.669,2.893,4.886,3.675,7.6.622,2.158.439,4.509,1.232,6.612,1.847,4.89,7.874,6.5,12.749,8.905" transform="translate(-169.846 -112.867)" fill="#c0c4cc"/></g></g><path d="M67.377,112.809a8.41,8.41,0,0,1,4.151,3.741,5.048,5.048,0,0,1-.439,5.369,8.189,8.189,0,0,1-2.534,1.8c-1.905,1.021-3.836,1.079-5.175,2.776l-15.1,19.134a22.177,22.177,0,0,1-5.8,5.727A14.152,14.152,0,0,1,32.9,152.77a30.233,30.233,0,0,1-9.183-3.569,71.6,71.6,0,0,1-12.025-8.316l3.555-4.583,4.652-6,10.814,8.185c1.529,1.156,3.387,2.377,5.215,1.8a6.06,6.06,0,0,0,2.6-2.107c4.4-5.237,8.627-10.631,13.506-15.422,3.555-3.489,7.428-6.631,11.293-9.768l1.2-.973,9.289-7.541a.244.244,0,0,1,.395.22c-.256,2.132-1.192,3.211-3.09,4.564-2.063,1.466-2.6,1.283-3.741,3.547" transform="translate(81.528 -57.724)" fill="#f0a974"/><path d="M67.377,112.809a8.41,8.41,0,0,1,4.151,3.741,5.048,5.048,0,0,1-.439,5.369,8.189,8.189,0,0,1-2.534,1.8c-1.905,1.021-3.836,1.079-5.175,2.776l-15.1,19.134a22.177,22.177,0,0,1-5.8,5.727A14.152,14.152,0,0,1,32.9,152.77a30.233,30.233,0,0,1-9.183-3.569,71.6,71.6,0,0,1-12.025-8.316l3.555-4.583c6.894,3.573,12.892,7.632,21.018,9.388a8.192,8.192,0,0,0,4.392.088,8.722,8.722,0,0,0,3.394-2.681Q54.2,131.89,64.341,120.679a6.306,6.306,0,0,0,1.862-3.116c.271-1.923-1.247-3.694-1.679-5.544l9.289-7.541a.244.244,0,0,1,.395.22c-.256,2.132-1.192,3.211-3.09,4.564-2.063,1.466-2.6,1.283-3.741,3.547" transform="translate(81.528 -57.724)" fill="#e4895b"/><path d="M157.244,137.582a13.576,13.576,0,0,1-1.214,3.621c-2.7,5.54-8.481,10.01-8.481,10.01s-12-2.9-18.586-12.409a15.3,15.3,0,0,1-.574-16.621c1.371-2.216,3.119-3.482,4.443-3.127,3.624.973,19.291,14.383,24.411,18.527" transform="translate(-52.718 -65.78)" fill="#c0c4cc"/><g transform="translate(73.492 56.401)" opacity="0.39"><g transform="translate(0)"><g clip-path="url(#h)"><path d="M158.745,145.14c-2.7,5.54-8.481,10.01-8.481,10.01s-12-2.9-18.585-12.409a15.3,15.3,0,0,1-.574-16.622c1.009,2.487,1.441,5.453,2.531,7.512,2.469,4.677,7.025,7.983,11.18,11.055a14.689,14.689,0,0,0,5.574,3c3.01.618,5.829-.648,8.356-2.542" transform="translate(-128.925 -126.119)" fill="#898e99"/></g></g></g><path d="M202.851,30.545a20.913,20.913,0,0,0-4.7,13.36c.04,3.175.823,6.309.867,9.486a21,21,0,0,1-4.615,13.3c-4.465,5.581-11.959,9.391-13.627,16.23-2,8.229,5.629,16.38,4.136,24.708-1.221,6.839-8.627,11.527-15.89,11.878s-14.244-2.742-20.312-6.564c-3.562-2.246-7.047-4.912-9.1-8.433a14.3,14.3,0,0,1-.765-1.518c-2.322-5.379-.87-11.527,1.083-17.042A80.242,80.242,0,0,1,148.85,67.83c2.29-3.4,5-6.831,5.318-10.865.446-5.574-3.815-11.055-2.293-16.458.907-3.214,3.76-5.658,6.916-7.08s6.641-1.993,10.05-2.7c2.205-.461,4.524-1.057,6.06-2.633,3.7-3.788.542-9.9,1.218-15.041.867-6.565,6.243-10.328,12.815-12C196.681-.92,206.091.023,211.7,2.715c17.949,8.62-2.4,19.884-8.85,27.83" transform="translate(-119.522 0)" fill="#884629"/><g transform="translate(20.093)" opacity="0.65"><g clip-path="url(#i)"><path d="M200.893,30.545a20.913,20.913,0,0,0-4.7,13.36c.04,3.175.823,6.309.867,9.486a21,21,0,0,1-4.615,13.3c-4.465,5.581-11.959,9.391-13.627,16.23-2,8.229,5.629,16.38,4.136,24.708-1.221,6.839-8.627,11.527-15.89,11.878s-14.244-2.742-20.312-6.564c-3.562-2.246-7.047-4.912-9.1-8.433,5.815,2.337,11.717,3.635,17.766,2.121,2.728-.684,5.468-2.088,6.806-4.557,2.531-4.659-.9-10.145-2-15.331a17.636,17.636,0,0,1,7.442-17.964c3.12-2.029,6.806-2.995,10.083-4.755s6.331-4.75,6.451-8.47c.084-2.633-1.313-5.057-2.008-7.6-1.572-5.742.53-11.937,3.84-16.889s7.764-9.011,11.622-13.549c2.443-2.875,4.721-7.029,2.648-10.182a8.845,8.845,0,0,0-3.577-2.746c-2.45-1.247-6.831-2.117-9.757-3.54C194.723-.92,204.133.023,209.743,2.715c17.949,8.62-2.4,19.884-8.85,27.83" transform="translate(-137.657 0)" fill="#3b1a0c"/></g></g></g></g></svg>